<svg width="212" height="143" viewBox="0 0 212 143" fill="none" xmlns="http://www.w3.org/2000/svg">
<path d="M195.139 142.562C185.291 142.562 179.45 137.536 179.003 130.297H188.42C188.42 132.71 189.761 135.922 195.586 136.122C199.624 136.122 201.859 133.709 201.859 131.895C201.412 129.082 197.821 128.883 194.246 128.268C190.208 127.684 187.079 126.869 184.829 125.87C181.7 124.256 179.897 120.829 179.897 117.217C179.897 110.777 185.291 105.751 194.693 105.751C203.662 105.751 209.488 110.377 209.92 117.417H200.965C200.965 115.618 200.518 112.591 195.139 112.591C191.548 112.591 189.314 113.19 188.867 115.803C188.867 119.43 196.48 119.23 202.306 120.629C207.685 122.043 211.276 125.455 211.276 130.297C211.276 139.149 204.109 142.562 195.139 142.562Z" fill="black"/>
<path d="M23.5432 83.1658L54.4599 65.2601L71.0433 93.6326H29.3689" fill="black"/>
<path d="M88.5558 141.494V105.683V141.494Z" fill="black"/>
<path d="M88.5558 141.494V105.683" stroke="black" stroke-width="12.8875"/>
<path d="M9.19357 124.119C9.19357 129.744 14.1255 134.37 19.4889 134.37C25.3301 134.37 29.7996 129.744 29.7996 124.119C29.7996 118.693 25.3301 113.867 19.4889 113.867C14.1255 113.867 9.19357 118.693 9.19357 124.119ZM19.0419 142.624C9.19357 142.624 0.686085 134.37 0.686085 124.119C0.686085 113.867 9.19357 105.813 19.0419 105.813C23.0799 105.813 26.6709 106.828 29.7996 109.026V106.213H38.7694V141.809H29.7996V139.596C27.1179 141.609 23.0799 142.624 19.0419 142.624Z" fill="black"/>
<path d="M138.705 93.6245L95.6901 18.8055L126.607 0.700119L180.379 93.6245" fill="black"/>
<path d="M50.4206 124.119C50.4206 129.744 54.9056 134.37 60.7313 134.37C66.0948 134.37 71.0421 129.744 71.0421 124.119C71.0421 118.693 66.0948 113.867 60.7313 113.867C54.9056 113.867 50.4206 118.693 50.4206 124.119ZM60.2844 142.624C49.9737 142.624 41.9132 134.37 41.9132 124.119C41.9132 113.867 49.9737 105.813 60.2844 105.813C64.307 105.813 67.898 106.828 71.0421 109.026V93.948H79.9965V141.809H71.0421V139.596C67.898 141.609 64.307 142.624 60.2844 142.624Z" fill="black"/>
<path d="M59.8426 51.1865L91.2063 33.496L125.714 93.6222H92.9941V102.475H84.0396V93.6222" fill="black"/>
<path d="M205.466 102.754C203.215 102.754 200.981 100.741 200.981 98.3277C200.981 95.9146 203.215 93.9012 205.466 93.9012C208.147 93.9012 209.951 95.9146 209.951 98.3277C209.951 100.741 208.147 102.754 205.466 102.754ZM205.466 94.516C203.215 94.516 201.875 96.3143 201.875 98.3277C201.875 100.341 203.215 102.155 205.466 102.155C207.7 102.155 209.041 100.341 209.041 98.3277C209.041 96.3143 207.7 94.516 205.466 94.516Z" fill="black"/>
<path d="M206.39 100.757L205.496 98.7432H204.602V100.757H203.924V95.9305H205.943C206.39 95.9305 207.284 96.5453 207.284 97.3445C207.284 98.1437 206.837 98.5434 206.39 98.7432L207.284 100.757H206.39ZM205.496 96.5453H204.602V98.1437H205.496C206.39 98.1437 206.39 97.9439 206.39 97.3445C206.39 96.9295 206.39 96.5453 205.496 96.5453Z" fill="black"/>
<path d="M146.283 124.119C146.283 129.744 150.768 134.37 156.594 134.37C161.973 134.37 166.889 129.744 166.889 124.119C166.889 118.693 161.973 113.867 156.594 113.867C150.768 113.867 146.283 118.693 146.283 124.119ZM156.132 142.624C145.837 142.624 137.776 134.37 137.776 124.119C137.776 113.867 145.837 105.813 156.132 105.813C160.17 105.813 163.761 106.828 166.889 109.026V106.213H175.412V141.809H166.889V139.596C163.761 141.609 160.17 142.624 156.132 142.624Z" fill="black"/>
<path d="M105.087 124.119C105.087 129.744 110.019 134.37 115.398 134.37C121.223 134.37 125.708 129.744 125.708 124.119C125.708 118.693 121.223 113.867 115.398 113.867C110.019 113.867 105.087 118.693 105.087 124.119ZM125.708 93.948H134.663V141.809H125.708V139.596C123.011 141.609 119.42 142.624 115.398 142.624C105.087 142.624 96.5795 134.37 96.5795 124.119C96.5795 113.867 105.087 105.813 115.398 105.813C119.42 105.813 123.011 106.828 125.708 109.026V93.948Z" fill="black"/>
</svg>
