<svg width="262" height="102" viewBox="0 0 262 102" fill="none" xmlns="http://www.w3.org/2000/svg">
<path d="M195.402 51.9916C182.922 51.9916 173.15 63.0752 172.769 76.7817C172.093 100.387 203.567 108.552 213.889 95.5224V85.4964C213.889 85.4964 210.632 91.1651 197.898 91.1651C185.165 91.1651 184.742 81.689 184.742 81.689H217.569C217.866 80.0815 218.035 78.4316 218.035 76.7394C217.992 63.0752 207.882 51.9916 195.402 51.9916ZM184.572 73.3551C185.926 68.0671 190.41 64.2175 195.698 64.2175C201.029 64.2175 205.513 68.1094 206.824 73.3551H184.572ZM32.5318 59.0141C29.0628 55.1221 24.494 52.7531 19.4598 52.7531C8.71462 52.7531 0 63.6252 0 77.0779C0 90.4882 8.71462 101.403 19.5021 101.403C24.5363 101.403 29.1051 99.0336 32.5741 95.1417V101.107H45.096V53.0069H32.5318V59.0141ZM23.2249 90.6151C17.7254 90.6151 13.2411 84.6503 13.2411 77.2894C13.2411 69.9285 17.7254 63.9636 23.2249 63.9636C28.7244 63.9636 33.2086 69.9285 33.2086 77.2894C33.1663 84.6503 28.7244 90.6151 23.2249 90.6151ZM116.124 95.5224V70.9015V63.9636C116.124 63.9636 115.321 52.6685 103.56 52.6685C91.7997 52.6685 89.2614 59.2256 89.2614 59.2256C89.2614 59.2256 85.8348 52.0762 76.9086 52.0762C69.5478 52.0762 65.6135 56.3489 64.429 57.8719V52.7531H52.1608V100.937H64.429V69.5055C65.1904 67.5595 67.3056 63.7098 71.7053 63.7098C76.5279 63.7098 77.9662 67.6864 78.2624 70.0554V95.4378C78.7277 97.8491 80.1237 99.5413 81.8582 100.937H94.1264C92.1804 99.3298 90.9536 97.553 90.5305 95.5224V71.7899C90.5305 71.7899 90.1498 64.1328 97.4684 63.7521C102.756 63.4983 103.729 68.3209 103.856 70.9861V72.4244C103.856 72.5936 103.856 72.6783 103.856 72.6783V95.3955C104.322 97.8068 105.718 99.499 107.452 100.895H119.72C117.774 99.3298 116.505 97.553 116.124 95.5224ZM150.095 52.7531C145.06 52.7531 140.492 55.1221 137.023 59.0141V38.1582H124.501V101.107H137.023V95.0994C140.492 98.9913 145.06 101.36 150.095 101.36C160.84 101.36 169.597 90.4882 169.597 77.0356C169.554 63.6252 160.84 52.7531 150.095 52.7531ZM146.372 90.6151C140.872 90.6151 136.388 84.6503 136.388 77.2894C136.388 69.9285 140.872 63.9636 146.372 63.9636C151.871 63.9636 156.356 69.9285 156.356 77.2894C156.313 84.6503 151.871 90.6151 146.372 90.6151ZM247.267 52.7954L238.214 86.7232L229.118 52.7954H214.608L230.684 100.98H244.475L261.439 52.7954H247.267Z" fill="#21409A"/>
<path d="M66.9249 20.602C66.8826 20.5174 66.8826 20.4328 66.8403 20.3905C65.8673 21.4904 64.8097 22.1673 63.456 22.5903C62.06 23.0134 60.8754 23.0134 59.9448 22.548C58.8872 22.0404 58.1257 20.9828 57.618 19.4175C57.1104 17.81 57.1527 16.4562 57.7026 15.441C58.2103 14.5526 59.0987 13.918 60.3255 13.495C61.2562 13.1988 62.4407 13.0296 63.5829 13.0296L62.6099 10.5337C62.483 10.5337 62.3138 10.5337 62.1869 10.5337C61.087 10.5337 59.9871 10.7029 58.8872 11.0413C54.4452 12.4374 52.4993 16.2447 53.8953 20.6443C54.5722 22.7172 55.7144 24.3248 57.2796 25.2555C58.9295 26.2708 60.9601 26.3977 63.1176 25.7208C64.8943 25.1709 66.0788 24.2402 66.6288 23.0134C67.1364 22.0827 67.0941 21.1097 66.9249 20.602Z" fill="#21409A"/>
<path d="M84.0157 20.0519L83.508 17.2599L76.3587 18.9943L75.5972 15.8639H75.6395L81.139 14.5101L80.4622 11.7604L74.878 13.1141L74.1589 10.0682H74.2012L81.139 8.33374L80.4622 5.58398L69.9708 8.16453L73.5243 22.6325L84.0157 20.0519Z" fill="#21409A"/>
<path d="M100.134 13.3257C99.1182 12.2681 98.0606 11.1682 96.8338 10.9144L96.6646 10.8721L96.8338 10.8298C98.7375 10.1529 99.7528 8.37613 99.4144 6.38784C99.2874 5.58407 98.8644 4.48416 97.7222 3.765C96.6223 3.04583 95.057 2.83431 93.1111 3.21504L87.4423 4.23034L90.0229 18.9098L93.5764 18.2753L91.4612 6.38784L92.9841 6.13402C94.634 5.83789 95.607 6.38784 95.8608 7.78387C96.2416 9.98368 93.9994 10.7452 93.1111 11.0413C94.1687 11.5912 95.0993 12.8604 96.03 14.0872C96.5377 14.764 97.0453 15.4832 97.5953 16.0332C98.4414 16.9215 99.372 17.4715 101.022 17.1754C101.487 17.0907 103.052 16.7523 103.729 15.8216C102.926 15.8216 102.164 15.3986 101.149 14.4679C100.81 14.0449 100.472 13.6641 100.134 13.3257Z" fill="#21409A"/>
<path d="M112.444 12.8605L108.298 1.35381L104.152 1.77685L110.202 16.1179L114.982 15.5679L117.986 0.253906L114.178 0.676946L112.444 12.8605Z" fill="#21409A"/>
<path d="M134.738 12.0566L127.377 12.1412L127.335 8.92614L133.046 8.84153L133.004 6.00717L127.293 6.09177L127.25 2.91898H127.293L134.442 2.83437L134.4 0L123.612 0.126912L123.824 15.0179L134.78 14.891L134.738 12.0566Z" fill="#21409A"/>
<path d="M141.295 12.7758C140.745 12.7758 140.068 12.5642 139.518 12.3104C139.518 13.1565 139.73 13.8757 140.195 14.4256C140.745 15.0602 141.549 15.3986 142.607 15.4409C143.707 15.4832 144.68 15.1871 145.314 14.5948C146.118 13.8333 146.541 12.6065 146.626 10.7875L147.049 0.465291L143.41 0.338379L142.987 10.9144C142.987 11.8451 142.734 12.8181 141.295 12.7758Z" fill="#21409A"/>
<path d="M156.736 1.52295L150.644 15.8217L154.156 16.2024L155.256 13.3681H155.298L159.867 13.8757L160.29 16.8793L164.139 17.3023L161.559 2.0306L156.736 1.52295ZM159.401 10.999L156.313 10.6606L158.64 4.69575L159.486 10.999H159.401Z" fill="#21409A"/>
<path d="M181.103 17.9792C180.892 17.5562 180.68 17.0908 180.511 16.6255C179.919 15.2718 179.327 13.8757 178.269 13.1989L178.1 13.1143H178.269C178.311 13.1143 178.311 13.1143 178.354 13.1143C180.342 13.1143 181.865 11.8029 182.246 9.85687C182.372 9.05309 182.415 7.86858 181.569 6.76868C180.765 5.71108 179.369 4.99191 177.465 4.61117L171.754 3.63818L169.047 18.2754L172.558 18.9099L174.715 7.06481L176.238 7.36093C177.888 7.65706 178.607 8.50314 178.354 9.89917C177.931 12.099 175.604 12.0567 174.631 11.9721C175.435 12.8605 175.858 14.3834 176.281 15.8217C176.534 16.6255 176.746 17.5139 177.042 18.1908C177.55 19.333 178.184 20.1367 179.877 20.4329C180.342 20.5175 181.949 20.729 182.922 20.0944C182.288 19.8406 181.696 19.206 181.103 17.9792Z" fill="#21409A"/>
<path d="M190.39 7.51007L186.889 21.9841L190.384 22.8295L193.885 8.35545L190.39 7.51007Z" fill="#21409A"/>
<path d="M197.94 25.1288L199.548 22.5482H199.59L203.99 23.9443L203.821 26.9478L207.501 28.0901L207.924 12.6068L203.313 11.1685L194.598 24.0289L197.94 25.1288ZM201.155 20.01L204.54 14.6797L204.117 21.0253L201.113 20.0946L201.155 20.01Z" fill="#21409A"/>
</svg>
