<svg width="358" height="357" viewBox="0 0 358 357" fill="none" xmlns="http://www.w3.org/2000/svg">
<path d="M285.091 32.6434C307.955 49.4552 325.776 70.3018 338.552 95.1832C354.019 125.444 360.072 158.732 357.382 195.045C354.019 239.428 336.199 276.75 304.257 307.348C273.659 336.6 237.682 352.739 196.325 355.766C141.182 360.137 94.1095 343.997 55.1062 307.348C14.4217 269.017 -3.73497 219.926 0.636087 160.749C2.98973 131.16 14.0855 102.58 33.5871 75.3453C64.857 31.6347 106.214 7.08956 158.33 1.37356C207.421 -4.00621 249.45 6.41708 285.091 32.6434ZM281.729 318.107C302.239 303.313 319.051 284.484 331.155 261.62C345.613 235.057 352.674 206.477 352.338 175.543C352.338 158.059 348.303 138.894 340.906 118.047C334.518 100.227 327.457 86.1048 319.723 75.3453C303.92 53.49 283.41 36.342 258.529 23.9013C229.276 9.10696 198.006 3.39097 165.391 6.41709C120.336 10.4519 82.3412 28.6086 52.4163 60.8872C21.1464 93.1658 5.67961 132.505 6.01585 178.906C6.35208 215.892 15.7667 248.506 35.2683 276.414C52.7526 301.968 76.6253 321.133 106.214 334.246C134.794 346.687 165.055 351.731 196.325 349.377C228.604 346.351 257.184 336.264 281.729 318.107ZM324.767 172.181C326.112 171.845 329.81 171.845 336.199 172.181C341.242 172.517 344.605 171.845 345.95 170.5C349.312 178.233 349.312 188.657 345.95 201.77C344.269 200.761 341.242 200.089 337.208 199.752C332.5 199.08 329.474 198.744 327.793 198.407C327.457 196.054 327.793 193.028 328.465 190.002C329.474 186.975 329.81 183.949 329.138 181.596C333.173 181.596 335.526 181.596 335.526 181.596C337.544 181.932 338.889 182.941 338.889 184.958C339.897 187.312 338.889 188.32 336.535 188.32C334.181 188.657 333.173 189.665 334.181 191.683C334.181 192.355 336.535 193.028 340.57 193.364C339.225 194.373 339.897 188.657 342.251 176.888H325.776C323.758 182.604 322.413 191.01 322.413 201.77C324.431 202.778 332.164 204.46 345.613 206.477C345.277 208.494 343.932 213.538 341.915 221.608C340.234 227.996 338.889 232.703 337.544 236.066C333.173 233.712 327.121 231.358 319.387 229.677C322.413 220.599 324.094 215.219 324.431 213.538C325.103 214.21 326.784 214.547 329.138 214.883C331.828 215.219 333.509 215.892 334.181 216.564C334.854 218.918 334.181 220.263 331.828 220.935C329.138 221.608 327.793 222.28 327.457 223.289C326.448 225.642 327.121 226.651 329.138 226.651C331.492 226.651 332.5 227.324 332.5 228.332C334.518 227.66 335.863 225.642 336.535 221.944C337.544 217.237 338.216 214.547 338.889 213.538C337.208 212.529 334.518 211.521 331.155 210.512C326.448 209.503 323.422 208.831 322.413 208.494C320.396 209.839 318.715 213.874 317.37 219.926C316.361 225.979 314.68 230.014 312.662 231.358C314.344 232.703 322.077 236.066 335.863 241.109C326.448 259.602 322.077 268.344 322.413 267.336C320.396 266.999 317.706 265.654 314.344 262.965C311.317 260.611 308.628 259.266 305.938 258.93C305.938 256.912 306.946 254.222 309.3 251.533C311.317 248.843 312.326 246.489 312.662 244.135C314.344 243.799 315.689 244.472 317.37 245.817C319.051 246.825 320.732 247.498 322.413 247.162C322.077 249.851 321.068 251.196 319.051 251.533C316.025 251.869 314.344 252.205 314.007 252.205C314.007 254.559 315.689 256.576 319.051 258.594C317.706 259.266 320.396 254.895 327.457 245.48C325.776 244.135 323.758 242.454 320.396 241.109C316.025 239.092 313.335 238.083 312.662 237.411C312.326 237.747 307.955 244.808 299.213 258.594C304.929 263.301 311.654 268.008 319.051 271.707C312.662 280.449 306.61 288.182 300.894 294.571C299.213 293.562 297.196 291.545 293.833 288.182C291.143 285.492 288.453 283.475 286.1 282.802C287.109 281.458 288.79 279.104 291.143 276.078C293.161 273.388 294.842 271.034 295.851 269.689C296.187 270.026 297.196 270.698 298.541 271.034C299.885 271.707 300.558 272.043 301.23 272.379C302.912 273.724 303.92 275.405 303.92 277.759C302.575 279.104 301.23 279.44 298.877 278.431C296.859 277.759 295.178 278.095 294.169 279.44C296.187 284.484 298.877 285.829 302.239 283.475C303.248 282.466 304.593 281.121 306.61 279.104C308.628 276.75 309.973 275.069 310.645 274.397C309.636 273.388 304.593 269.353 295.851 262.965C294.506 264.31 291.816 267.336 287.445 272.043C284.082 275.742 281.393 278.768 279.375 281.121C284.082 287.174 289.462 292.89 295.514 297.597C293.833 300.623 290.471 303.985 285.091 307.684C279.375 311.719 275.677 314.745 273.995 317.098C269.624 314.072 265.589 308.356 262.563 300.959C263.908 300.623 266.262 298.942 268.952 296.588C271.305 294.571 273.659 293.226 275.677 292.89C276.013 294.234 277.021 295.243 278.703 296.588C280.384 297.933 281.056 299.278 280.72 300.959C279.039 302.304 277.021 302.304 274.668 300.959C272.65 299.614 270.633 300.287 269.288 302.304C269.624 303.649 270.297 304.658 271.642 305.666C272.987 306.675 273.995 307.684 273.995 309.029C281.393 306.339 284.755 302.64 284.419 297.933C284.082 293.562 280.72 289.527 273.995 285.829C272.65 286.501 269.624 288.855 264.581 292.89C260.882 295.916 257.52 297.933 254.157 298.942C262.563 311.719 267.271 318.443 267.271 318.78C264.917 321.47 260.546 324.159 254.494 326.849C247.433 329.875 243.062 332.229 241.044 333.574C239.363 332.229 238.018 329.539 236.673 325.504C235.328 321.133 233.983 318.443 232.638 317.098C233.647 315.754 235.665 314.409 239.027 313.064C242.389 311.719 244.407 310.374 245.415 309.029C247.097 309.365 248.441 311.046 249.786 313.736C251.131 316.426 251.468 318.107 250.123 318.78C251.468 317.435 248.778 316.762 241.717 317.098C243.734 316.762 243.734 319.452 241.717 325.504C244.407 325.168 250.123 322.814 258.192 319.116C256.847 317.771 255.502 315.417 253.821 311.382C252.14 307.684 250.459 305.33 248.441 304.322C246.088 304.658 242.389 306.339 238.018 308.693C233.983 310.71 230.285 312.055 226.922 312.727C226.922 316.426 227.931 320.797 229.612 324.832C231.63 330.212 232.975 333.91 233.647 335.591C214.145 339.962 204.058 341.98 203.722 341.98C202.377 332.229 201.369 326.849 200.36 325.504C201.369 324.159 203.722 323.487 207.757 322.814C211.792 322.478 214.145 321.47 215.154 320.461C216.499 320.797 217.508 321.806 217.844 324.159C218.18 326.513 219.189 328.194 220.198 328.53C218.18 330.548 216.499 331.557 214.818 330.884C214.482 330.884 212.801 329.539 210.447 327.186C209.102 326.849 208.429 328.194 208.429 330.212C208.766 333.238 208.766 335.255 208.766 335.591C213.137 335.928 218.517 334.583 225.241 332.229C224.905 330.212 223.224 324.832 220.198 315.754C217.508 316.09 213.473 317.098 208.093 318.107C203.05 319.452 198.679 320.125 195.989 320.461C196.325 321.806 196.661 325.841 197.334 332.229C197.67 336.936 198.679 340.635 199.351 343.325C198.006 343.661 192.626 343.997 184.221 344.67C178.168 345.006 172.789 345.342 168.081 345.006C169.426 342.316 169.762 335.928 169.762 325.168C178.505 325.504 183.884 325.504 185.902 325.168V335.255C183.884 335.928 182.203 335.255 181.194 333.574C179.849 331.557 178.505 331.22 176.151 332.229C172.789 336.6 173.797 339.29 179.177 339.962C183.884 340.971 188.592 340.299 192.626 338.618C192.29 338.618 191.954 332.565 190.945 320.461C178.168 322.478 169.426 322.478 164.719 320.461C164.719 322.478 164.383 326.177 163.374 331.557C162.701 335.928 162.365 339.962 163.038 343.325C158.33 343.661 153.287 343.661 147.907 342.652C140.846 341.307 135.803 340.299 133.785 340.299C134.121 338.281 135.803 332.565 138.829 322.142C140.846 321.806 143.2 322.142 146.226 323.151C148.916 324.159 151.269 324.159 153.623 323.823C153.287 324.159 153.623 326.177 153.959 329.539C154.296 332.229 153.623 333.574 151.942 333.574C149.588 334.919 147.907 333.91 147.571 331.557C147.235 329.203 145.89 328.194 144.209 328.53C143.536 328.867 142.864 330.884 142.527 335.255L155.641 338.618C157.994 338.281 159.003 335.928 159.003 331.22C158.667 325.841 159.339 322.814 160.348 321.806C158.33 320.461 154.632 319.116 148.916 318.443C143.2 317.435 139.165 316.762 137.148 315.417C135.13 317.098 133.113 320.125 131.768 324.832C129.75 333.574 128.742 337.609 129.078 336.6C124.707 336.936 119.663 335.591 114.62 333.238C108.904 330.548 104.197 328.867 101.17 328.53C101.507 326.177 104.197 320.125 109.576 310.374C116.301 313.064 121.345 315.081 124.371 316.762C118.655 322.142 116.301 325.168 117.982 325.168C115.965 324.496 115.292 323.487 115.629 322.142C115.965 320.797 115.629 319.452 114.62 318.78C112.602 318.443 111.594 318.78 111.257 320.125C110.249 322.142 109.913 323.487 109.913 323.487C110.249 324.496 114.62 326.513 123.026 329.875C125.043 328.867 126.388 326.849 127.397 323.487C129.078 317.098 129.75 314.409 129.75 315.081C127.733 312.727 124.371 310.71 119.327 308.693C113.611 306.339 109.576 304.658 107.895 303.313C104.869 307.348 100.834 313.736 96.4631 323.151C91.7558 321.47 83.35 316.426 71.918 308.356C72.5904 306.003 73.9354 303.313 76.289 300.287C79.3151 296.924 80.9963 294.571 81.6688 293.562C84.0224 293.898 86.7123 295.243 89.4022 297.261C92.4283 299.614 94.782 300.959 96.4631 301.632C89.7384 307.011 87.0485 310.038 88.3935 310.038C87.3848 308.693 87.0485 307.011 87.3848 304.658C87.3848 302.977 86.7123 301.632 85.0311 300.287L79.9876 306.675C80.6601 308.356 82.6775 310.038 85.7036 311.719C88.7297 313.064 90.7471 314.745 91.4196 316.426C93.437 315.417 95.4544 313.064 97.1356 309.029C99.153 305.33 101.17 302.64 102.852 301.632C94.1095 293.226 87.721 288.855 83.6862 288.518C77.9702 287.846 72.2542 292.89 66.5382 303.313C55.1062 292.89 48.7177 285.156 47.0366 280.113C48.7177 279.44 51.0714 277.759 54.0975 274.733C56.7874 272.379 59.4772 270.698 61.8309 270.362C62.1671 272.379 63.5121 274.397 66.202 276.75C68.5556 278.768 69.9005 281.121 69.9005 283.139C67.5469 284.147 65.8657 285.829 65.1932 288.182C62.1671 287.174 60.8222 285.829 61.4947 283.811C62.5034 281.121 62.8396 279.44 61.8309 278.431C60.1497 278.095 58.8048 278.095 58.1323 279.44C57.1236 280.785 56.1149 281.794 55.1062 281.794C55.4424 283.811 56.7874 286.165 59.141 288.182C61.4947 290.536 63.1758 292.553 63.5121 294.571C66.202 294.234 68.8918 292.217 70.9093 289.191C73.9354 284.82 75.9528 282.466 76.6253 281.794C75.2803 278.768 73.2629 275.742 69.5643 272.379C65.5295 268.344 62.8396 265.318 61.8309 263.973C63.1758 263.301 57.1236 267.672 43.6742 277.086C37.2857 271.37 31.5697 262.628 27.1987 250.86C29.5523 250.524 32.2422 249.515 35.6045 247.498C38.6307 245.48 41.6568 244.472 44.0104 244.135C44.3467 245.48 45.6916 247.834 47.709 250.86C49.7264 253.55 50.3989 256.24 50.3989 258.93C49.3902 259.266 48.3815 259.938 46.7003 260.947C45.3554 261.956 43.6742 262.292 42.3293 262.292C41.3205 260.275 41.3205 258.257 42.3293 256.576C43.338 254.895 43.338 252.878 42.3293 250.86C41.3205 251.196 40.3118 251.869 38.9669 252.541C37.622 253.214 36.6133 253.55 35.6045 253.886C35.2683 256.576 36.277 259.266 38.2944 261.62C40.6481 264.31 41.993 266.663 41.993 268.681C44.6829 268.008 47.3728 266.663 50.3989 264.31C53.7613 261.62 56.4511 259.602 58.4685 258.93C50.7351 245.144 47.0366 238.083 47.0366 237.747C43.6742 237.747 39.6394 239.092 35.6045 241.782C31.2335 244.472 27.5349 245.817 24.1726 245.817C19.4653 234.048 16.1029 224.634 14.0855 217.909C16.7754 218.245 20.1377 217.573 23.5001 216.564C27.1987 215.555 30.2248 214.883 32.5784 214.883C34.5958 219.926 36.277 224.97 37.2857 229.677C32.9147 231.695 29.5523 232.703 27.5349 233.04C26.8624 230.686 27.8711 227.66 30.8973 224.634C30.561 222.616 29.5523 221.608 27.8711 221.608C27.5349 221.944 26.5262 221.944 25.5175 222.28C24.1725 222.616 23.5001 222.953 22.8276 222.953C22.4914 225.979 24.1726 231.358 27.8711 239.092C35.9408 235.393 41.3206 233.04 44.3467 232.703C39.9756 216.9 37.622 208.831 37.622 208.158C35.6046 208.158 27.5349 209.839 13.0768 212.866C12.7405 210.176 12.0681 205.468 11.0594 198.744C10.0507 193.028 9.71443 187.648 9.71443 183.613H27.8711C27.5349 185.63 27.8711 187.984 28.8798 191.01C29.8885 193.7 29.8885 196.054 29.5523 198.407C28.5436 198.407 27.1987 198.744 25.1813 199.752C23.1638 200.425 21.4827 200.761 19.8015 200.425C19.4653 195.045 21.1464 192.691 24.845 193.7C24.1725 188.993 20.8102 187.984 14.758 190.338C16.4391 195.045 17.1116 199.752 16.4391 205.132C19.129 205.805 22.1551 205.468 25.8537 204.46C29.2161 203.451 32.2422 203.115 34.5958 203.451C35.6045 201.434 35.6045 197.735 34.5958 192.355C33.2509 185.63 32.9147 180.923 33.2509 178.57C31.5697 177.561 28.8798 177.561 24.845 177.897C18.7928 178.57 14.0855 178.906 10.3869 178.57C10.3869 162.43 10.7231 152.679 11.7318 148.981C14.0855 148.645 17.1116 149.317 20.8102 149.99C24.1726 150.998 27.1987 151.334 30.2248 150.662C30.561 153.352 30.2248 156.042 29.5523 159.068C28.5436 162.43 28.2074 165.12 28.5436 167.138H18.7928C18.1203 164.448 18.4566 162.43 20.1377 161.422C20.474 160.749 21.4827 160.413 22.4914 160.077C23.8363 159.404 24.5088 159.068 24.845 159.068C21.8189 154.361 18.7928 154.024 16.4391 158.059C14.0855 162.094 13.413 166.801 15.0942 172.181H31.5697C33.2509 170.5 34.2596 166.801 34.5958 161.422C34.9321 155.033 35.9408 150.998 36.6133 148.981C29.2161 145.618 21.4827 143.937 13.413 144.274C13.0768 139.566 14.0855 134.523 16.1029 128.807C18.1203 122.418 19.4653 117.711 19.8015 114.685C22.1551 115.021 25.1813 116.03 28.8798 118.047C32.5784 119.728 35.6045 120.737 37.9582 121.41C36.9495 125.781 35.2683 130.824 33.2509 136.204C29.2161 136.54 26.19 135.195 24.845 132.842C24.5088 130.824 25.1813 129.479 27.8711 129.143C30.561 128.807 31.5697 127.798 31.2335 126.453C30.2248 124.436 28.2074 123.427 24.845 123.091C21.4827 126.117 19.8015 131.16 19.8015 137.885C21.1464 139.23 23.8363 140.239 27.5349 140.911C32.2422 141.92 35.2683 142.592 36.277 142.929C37.622 140.239 38.9669 136.54 40.6481 131.833C42.6655 126.117 43.6742 122.418 44.6829 120.065C43.338 120.065 36.277 116.702 23.8363 111.659C25.1813 108.969 27.1987 104.598 30.561 98.5455C33.5871 93.1658 35.6046 88.7947 36.9495 85.4324C39.6394 86.1048 42.3293 87.786 45.3554 89.8034C49.3902 92.8295 52.0801 94.5107 53.0888 95.1832C52.7525 97.5368 50.0627 102.244 45.0191 108.296C43.0017 108.296 41.3205 107.624 38.9669 106.279C36.6133 104.934 36.277 103.925 38.2944 103.253C38.2944 100.899 39.6394 100.227 41.993 100.899C44.6829 101.572 46.0278 100.563 46.3641 98.5455C46.3641 98.8818 44.3467 97.2006 39.9756 93.8382C37.9582 95.8557 35.2683 99.8905 31.5697 106.951C32.9147 108.296 35.2683 109.978 38.6307 111.322C43.0017 113.34 45.6916 114.685 46.3641 115.021C48.3815 113.004 50.7351 109.978 53.425 105.606C56.1149 100.563 58.4685 96.8644 59.8135 95.1832C54.4337 89.131 48.3815 84.7599 41.6568 82.07C43.0017 78.3714 46.0278 74.0004 50.3989 69.2931C55.1062 64.2495 58.4685 60.2147 59.8135 57.1886C64.857 60.8872 69.2281 65.5945 72.9267 70.3018C70.2368 77.3627 65.8657 81.3975 59.8135 81.7338C59.8135 81.3975 58.8048 80.3888 57.1236 78.3714C55.7787 77.0265 56.1149 76.0178 58.1323 75.3453C58.4685 73.3279 59.4773 72.6554 61.1584 73.6641C63.5121 75.0091 65.1933 74.3366 66.5382 71.983C65.5295 69.6293 63.8483 67.9481 61.4947 67.2757C58.8048 67.6119 56.4511 69.2931 54.4337 71.6467C50.7351 77.0265 49.3902 79.3801 50.0627 78.7077C51.4076 79.7164 53.425 81.7338 56.7874 84.0874C59.8135 86.4411 61.8309 88.4585 63.1758 90.1397C64.5208 87.786 67.5469 84.7599 71.5817 81.0613C75.2803 77.3627 77.9702 74.0004 79.6514 71.6467C78.9789 68.9568 76.9615 65.9307 73.5991 63.2408C69.9005 59.8785 67.5469 57.1886 66.5382 55.5074C67.8831 51.4726 70.9093 47.774 75.9528 44.4117C82.6775 39.7044 86.7123 36.6783 87.721 35.6696C92.0921 39.7044 95.4544 45.4204 97.4718 52.1451C97.1356 52.4813 95.1182 53.8263 91.7558 55.8437C89.4022 57.5248 87.3848 58.8698 86.3761 60.2147C85.0311 59.8785 83.6862 58.8698 82.6775 57.1886C81.3326 55.1712 80.6601 53.8263 79.6514 53.49C79.9876 51.4726 81.6688 50.4639 83.6862 50.4639C84.3587 50.4639 85.3674 50.8001 86.7123 51.1364C88.0573 51.4726 89.066 51.8088 89.7384 51.8088C91.0834 50.4639 91.0834 49.119 90.0747 48.1103C88.7297 46.7653 88.0573 45.4204 88.0573 43.7392C85.7036 43.7392 83.3499 45.4204 80.6601 47.774C77.9702 50.1277 75.6165 51.8088 73.2629 52.1451C73.5991 54.4987 75.2803 56.8524 78.3064 59.5423C80.9963 61.8959 82.6775 64.5858 83.0137 66.9394C88.7297 64.5858 96.1269 59.5423 104.533 52.1451C103.524 49.7914 102.179 46.4291 99.4893 42.058C97.1356 38.0232 95.4544 34.6608 94.4457 32.3072C96.7994 30.2898 101.17 27.9361 106.55 25.5825C112.602 22.8926 116.973 20.8752 118.991 19.194C123.362 27.2637 125.379 33.9884 125.379 38.6957C123.026 38.6957 120.336 39.3681 117.646 41.0493C114.956 42.7305 112.602 43.7392 110.585 43.7392C111.257 42.058 110.921 40.0406 109.24 37.3507C107.895 35.6696 107.895 34.3246 108.904 33.9884C107.559 35.6696 110.249 36.0058 117.31 35.6696C118.991 34.9971 119.327 33.9884 118.318 32.6434C116.973 30.626 116.637 28.6086 117.31 27.2637C115.292 27.2637 112.602 28.2724 109.913 29.6173C106.886 30.9623 104.533 31.971 102.515 31.971C102.515 34.9971 103.524 38.0232 105.541 41.3855C107.559 45.0841 108.904 48.1103 108.904 50.1277C118.991 45.0841 126.724 41.7218 132.104 40.3768C131.768 37.3507 130.759 33.3159 129.078 28.6086C127.061 23.2288 126.052 19.194 125.716 17.5128C133.113 15.4954 142.191 13.478 153.623 11.1244C153.959 12.8056 154.632 16.1679 154.968 21.2114C155.641 25.5825 156.313 28.6086 156.985 30.626C154.296 30.2898 151.606 30.626 148.58 31.2985C145.217 32.3072 142.527 32.3072 140.51 32.3072C140.846 30.626 140.51 28.9448 139.837 27.2637C138.829 25.5825 138.493 24.2376 138.829 22.5564C141.182 21.5477 143.2 21.8839 144.545 23.2288C145.89 24.91 147.571 25.5825 148.916 25.5825C150.597 24.91 150.933 23.9013 149.925 22.2201C148.58 20.2027 148.243 18.5216 148.916 17.1766C146.898 17.1766 143.872 17.8491 140.51 18.8578C137.148 19.8665 134.458 20.539 132.104 20.539C134.794 26.255 136.475 32.3072 137.148 38.6957C151.606 35.6696 160.012 33.9884 161.693 33.9884C162.029 32.3072 161.357 28.2724 160.348 21.5477C159.339 16.8404 160.012 13.1418 161.693 10.7881C160.684 11.4606 169.426 10.7881 187.919 9.10697V28.9448H171.78V19.194C173.797 18.1853 175.478 18.5215 176.151 20.2027C177.16 21.8839 178.168 22.8926 179.513 22.5564C180.186 22.5564 180.858 20.2027 181.194 15.8317C181.867 17.1766 176.823 16.8404 166.4 14.1505V32.3072C167.745 32.3072 171.78 32.3072 178.841 31.971C184.221 31.971 187.583 32.6434 189.264 33.9884C191.281 32.3072 192.29 28.9448 192.626 23.9013C192.626 22.5564 192.626 20.539 192.626 17.5128C192.626 14.4867 192.626 12.4693 192.626 11.1244C196.661 10.7881 201.369 11.1244 206.748 12.4693C213.137 13.478 217.508 14.1505 220.198 14.4867C220.534 17.5128 220.198 20.539 219.189 23.9013C217.844 28.6086 217.172 31.6347 216.835 32.3072C214.818 32.6434 212.464 32.3072 209.438 31.2985C206.748 30.2898 204.395 30.2898 202.041 30.626C202.377 30.2898 202.377 28.2724 202.041 24.91C201.705 22.5564 202.377 21.2114 203.722 20.8752C206.412 20.2027 207.757 20.539 208.093 21.8839C208.429 23.2288 208.093 24.5738 206.748 25.9187C210.783 26.5912 212.801 25.2463 213.137 22.5564C213.809 19.5303 212.128 17.8491 208.093 17.5128C203.386 17.5128 200.696 16.8404 200.024 15.8317C197.67 16.1679 196.661 18.1853 196.661 22.2201C196.661 29.6173 196.661 32.9797 196.997 32.3072C198.679 33.9884 202.041 35.3333 207.421 36.0058C213.137 37.0145 216.835 37.687 218.517 38.6957C221.543 34.6608 223.896 27.5999 224.905 17.5128C229.276 17.5128 234.32 18.5216 239.363 20.8752C245.079 23.5651 249.786 25.2463 252.813 25.5825C252.476 27.5999 251.131 30.626 249.45 34.3246C247.433 37.687 246.424 41.0493 246.088 43.7392C239.363 41.0493 234.656 39.0319 231.293 37.3507C232.975 32.3072 233.983 29.2811 234.656 28.9448C237.682 28.6086 239.027 29.6173 238.691 31.2985C238.354 33.6521 238.354 34.9971 239.363 35.3333C241.381 36.0058 242.389 35.3333 242.725 33.6521C243.734 31.6347 244.07 30.2898 244.07 30.2898C243.062 28.6086 238.691 26.255 230.957 23.9013C229.612 24.91 228.267 27.2637 227.259 30.9623C226.25 34.9971 225.241 37.687 224.569 38.6957C226.586 40.3768 229.949 42.3943 235.328 44.4117C240.708 46.0928 244.07 48.1103 245.752 50.1277C247.433 48.1103 249.45 44.7479 251.804 40.3768C254.494 35.6696 256.175 32.3072 257.184 30.2898C266.934 33.3159 273.659 37.3507 277.358 42.058C281.729 48.1103 279.711 53.49 270.633 58.1973C266.262 57.5248 262.9 55.5074 260.546 51.4726C258.192 47.1015 259.537 44.4117 265.589 43.403C266.934 44.4117 267.271 46.0928 266.598 47.774C266.262 49.4552 266.262 50.8001 267.271 51.8088C269.288 52.4813 270.633 51.8088 271.305 50.1277C272.314 48.1103 272.987 47.1016 273.659 46.7653C272.987 45.0841 271.305 43.0667 268.279 41.3855C264.917 39.7044 262.9 38.0232 261.891 37.0145C259.537 38.0232 257.52 40.0406 256.175 43.403C253.485 48.7827 252.14 51.8088 252.14 51.8088C253.485 53.8263 256.511 56.1799 261.218 59.206C265.589 61.8959 268.616 64.5858 270.297 66.6032C269.288 67.2757 274.332 61.5597 285.091 50.1277C288.79 51.1364 292.824 54.1625 296.523 58.5336C301.23 63.9133 304.593 67.2757 306.274 68.2844C302.912 74.6728 298.541 78.3714 293.833 79.0439C288.79 80.0526 285.091 76.354 283.41 68.2844C284.755 68.6206 285.764 67.6119 286.436 65.5945C286.772 63.5771 288.117 63.2408 290.135 63.5771C291.48 64.5858 291.48 66.267 290.807 68.2844C289.798 70.638 290.135 71.983 291.48 73.3279C293.161 74.0004 294.506 73.3279 295.178 71.983C296.187 70.638 297.196 69.9655 297.868 69.9655C295.178 62.2321 291.48 58.8698 287.109 59.5423C283.074 60.2147 279.039 63.5771 275.004 69.9655C281.729 79.0439 287.109 84.0874 291.143 84.7599C295.178 85.4324 302.239 82.07 311.317 75.0091C320.06 92.1571 324.431 100.563 324.431 99.5543C322.077 99.5543 319.387 100.563 316.361 102.917C313.671 105.27 310.645 105.943 307.955 105.943C306.274 99.8905 303.92 95.8557 301.23 94.5107C305.601 89.131 308.964 87.4498 311.317 89.8034C312.662 91.1484 312.662 92.1571 311.654 93.1658C309.973 94.5107 309.636 96.1919 309.636 97.5368C310.981 98.8818 312.326 99.218 313.335 98.2093C314.68 96.5281 316.025 95.8557 317.706 96.1919C315.689 88.4585 312.662 84.0874 308.628 83.7512C305.601 83.415 300.894 86.1048 294.506 91.1484C295.514 93.1658 297.532 96.5281 300.894 101.572C303.584 105.606 305.265 109.305 306.274 112.667C309.3 112.331 313.335 110.986 317.706 108.296C322.077 105.943 326.112 104.598 329.474 104.598C329.81 106.951 331.492 110.986 334.181 117.038C336.535 122.082 337.544 126.789 337.544 131.16C327.121 134.859 322.077 136.54 322.749 135.868C320.396 134.523 318.042 128.807 316.361 119.728C318.042 120.065 319.723 119.728 321.068 118.72C322.749 117.711 324.431 117.711 326.112 118.047C326.784 120.401 326.448 122.082 324.767 123.427C323.086 124.772 322.413 126.453 322.749 128.134C326.112 128.47 328.802 127.798 331.155 126.453C331.155 124.099 330.147 121.41 329.138 118.72C327.457 115.021 326.448 112.667 326.112 111.659C324.431 112.331 321.405 113.34 317.706 115.021C314.68 116.702 311.654 117.711 309.3 118.383C313.671 128.807 316.361 137.213 317.706 143.265C320.06 142.256 324.094 141.247 329.138 139.902C334.518 138.558 338.553 137.549 340.57 136.54C343.596 150.662 345.277 160.749 345.613 166.129C342.924 165.793 339.561 166.129 336.199 166.801C332.837 167.81 329.81 168.146 327.121 167.81C325.776 167.138 325.439 164.784 325.439 160.413C325.776 156.378 325.103 153.688 323.758 153.016C325.776 151.671 328.129 150.662 330.147 150.326C333.173 149.653 334.854 150.662 335.19 153.016C336.199 155.033 335.19 156.042 332.837 156.378C330.483 156.714 329.81 157.723 330.483 159.74C330.483 160.413 332.5 161.085 336.871 161.422C338.552 160.077 339.225 157.387 338.552 153.688C337.544 147.972 336.871 144.946 336.871 144.946C333.845 144.61 330.483 145.282 327.121 145.955C322.413 147.3 319.723 147.972 318.715 148.308C323.086 161.422 324.094 169.491 324.767 172.181ZM40.6481 164.111C43.0017 177.225 43.6742 183.277 41.993 182.268C42.3293 179.578 44.0104 174.535 47.0366 167.474C45.3554 168.146 44.0104 167.474 43.338 166.129C42.3293 164.784 41.3205 164.111 40.6481 164.111ZM41.993 196.726C42.3293 197.399 42.3293 199.08 41.993 202.778C41.6568 205.132 42.3293 206.477 43.6742 206.477C44.0104 207.486 45.0191 204.123 47.0366 196.726H41.993ZM91.4196 178.906C87.721 173.862 80.9963 170.164 71.5817 168.482C61.8309 166.801 54.4337 168.146 48.7177 172.181C46.0278 178.57 43.6742 185.294 41.993 191.683C44.6829 191.683 47.3728 190.338 49.7264 187.312C52.0801 183.949 54.4337 182.268 56.7874 181.932C59.8135 179.914 66.202 179.914 74.9441 181.259C83.35 182.604 88.7297 181.932 91.4196 178.906ZM60.1497 104.934C59.141 106.951 57.1236 110.65 54.0975 116.702C51.7439 122.082 49.7264 126.117 48.0453 129.479C44.0104 139.902 42.3293 149.317 43.6742 157.387C44.3467 154.697 48.0452 145.618 55.1062 130.488C60.486 119.392 62.1671 110.986 60.1497 104.934ZM165.055 316.762C203.386 319.788 236.001 311.046 262.563 290.2C286.436 271.707 303.584 245.48 314.344 211.521C308.964 213.874 304.929 218.918 302.239 226.315C302.239 225.642 300.558 233.04 296.523 247.498C277.021 268.008 258.529 285.492 240.708 299.95C237.009 297.933 233.647 298.606 230.285 301.632C226.25 305.666 222.888 307.684 220.87 308.02C195.316 311.719 167.073 311.719 135.466 308.02C134.121 307.348 132.777 306.003 131.095 304.658C129.078 302.64 128.069 301.632 127.061 300.959C123.698 298.269 120 298.269 115.629 299.95C112.602 296.924 103.188 287.846 87.721 273.724C76.289 263.301 67.5469 253.886 61.4947 245.817C56.4511 227.324 51.4076 216.564 46.7003 212.866C46.7003 211.857 46.3641 211.521 45.3554 211.521C44.3467 211.521 43.6742 212.193 43.6742 212.866C67.2107 277.423 107.559 312.055 165.055 316.762ZM45.3554 162.094C54.0975 159.74 65.8657 161.422 80.6601 167.474C94.4457 173.19 105.205 174.871 112.602 171.845C111.257 167.474 105.541 163.775 96.4631 161.422C87.3848 159.068 81.6688 156.042 79.6514 152.007C68.8918 152.343 61.8309 152.679 58.4685 153.016C51.7438 154.697 47.3728 157.723 45.3554 162.094ZM81.6688 185.294C70.2368 185.967 61.8309 187.984 56.7874 191.683C51.7438 195.045 48.3815 200.761 47.3728 208.494C50.3989 209.503 53.7612 208.158 57.1236 204.796C61.1584 200.425 65.1932 197.735 68.5556 197.062C71.918 196.054 81.6688 196.054 97.4718 196.726C109.24 197.399 117.31 195.045 121.345 190.338C121.008 184.622 116.301 181.932 106.55 182.268C103.86 182.604 99.4892 182.941 93.7732 183.613C87.721 184.622 83.6862 184.958 81.6688 185.294ZM117.646 150.662C96.1269 141.247 85.3674 136.54 85.0311 136.54C71.2455 132.842 60.1497 135.195 52.0801 143.937C62.5034 140.239 75.2803 142.929 89.7384 152.007C95.7907 155.706 100.498 158.059 103.86 158.395C108.568 158.732 113.275 156.378 117.646 150.662ZM130.759 210.176C131.095 205.805 127.061 202.778 118.655 201.434C110.921 200.089 101.843 200.089 91.4196 201.434C80.6601 202.778 72.2542 205.468 66.5382 208.831C60.1497 212.866 58.4685 217.909 62.1671 222.953C64.857 223.961 67.5469 223.961 70.573 222.28C74.9441 219.926 78.3064 218.245 80.3238 217.909C80.6601 217.909 91.0834 218.245 112.266 218.582C123.698 219.254 130.087 216.228 130.759 210.176ZM73.2629 86.7773C72.2542 88.1222 70.9092 90.4759 68.2194 93.8382C65.8657 96.8644 64.1845 99.5543 63.5121 101.572C67.8831 102.58 71.2455 101.235 73.5991 97.2006C75.9528 93.8382 75.9528 90.1397 73.2629 86.7773ZM112.939 142.592C118.318 130.152 108.904 123.763 85.0311 122.754C84.0224 121.746 82.6775 119.728 80.9963 117.038C78.9789 113.676 77.9702 111.659 76.9615 110.65C73.5991 105.943 69.5643 104.262 65.1932 106.279C67.8831 108.296 70.573 115.021 73.5991 126.117C78.9789 126.789 85.7036 129.479 93.1008 134.523C100.498 139.566 106.886 142.256 112.939 142.592ZM99.4893 226.315C91.7558 221.271 84.0224 221.944 75.6165 227.66C67.8831 233.376 64.857 240.101 66.5382 247.498C85.0311 240.437 95.1182 236.402 97.4718 236.066C97.1356 234.385 97.4718 232.703 98.4805 231.358C99.8255 229.677 99.8255 227.996 99.4893 226.315ZM79.6514 83.415C78.3064 86.4411 78.6427 90.8121 79.9876 96.5281C82.005 103.925 83.0137 108.969 82.6775 111.322C83.6862 111.659 90.7471 115.694 103.86 123.427C112.602 128.47 119.663 130.152 125.379 127.798C124.371 122.418 121.008 118.383 114.284 115.694C112.939 115.021 110.249 114.012 105.878 112.667C102.179 111.659 99.4892 110.314 97.4718 109.305C95.4544 107.624 93.1008 102.917 90.0747 94.847C87.721 88.4585 84.3587 84.4237 79.6514 83.415ZM109.24 226.315C107.895 229.677 103.524 235.393 96.1269 243.463C90.0747 249.851 86.7123 256.576 86.7123 264.31C89.066 265.654 91.4196 264.982 93.437 261.62C94.1095 260.611 94.7819 259.266 95.7906 257.249C97.1356 254.895 97.8081 253.55 97.8081 252.878C120 241.782 133.449 232.031 138.829 223.289C136.475 219.59 132.104 218.918 126.724 221.944C118.991 225.306 113.275 226.987 109.24 226.315ZM91.4196 70.3018C91.0834 75.0091 92.7645 79.7164 96.4631 83.7512C100.834 88.4585 106.214 90.8121 112.939 90.1397C114.956 91.8208 117.31 96.5281 120.336 104.598C122.689 111.322 126.388 115.357 131.095 116.366C134.458 106.279 131.095 94.1745 121.008 80.0526C109.576 80.3888 99.8255 77.3627 91.4196 70.3018ZM106.214 58.8698C105.878 59.8785 103.86 61.2234 100.498 62.9046C97.8081 64.2495 96.4631 66.267 96.4631 68.6206C99.153 71.3105 101.843 70.9743 104.869 67.2757C107.559 63.2408 108.231 60.551 106.214 58.8698ZM112.939 109.641C114.956 105.606 114.284 101.572 110.585 98.2093C107.223 94.847 102.852 93.1658 97.8081 93.502C100.162 101.235 104.869 106.615 112.939 109.641ZM142.527 236.066C139.837 238.419 135.466 241.446 129.414 244.808C123.026 248.506 118.655 251.196 116.301 252.878C106.55 259.938 101.507 269.353 101.17 280.785C105.878 279.44 112.939 274.733 121.681 267.336C131.768 258.93 139.165 253.55 143.872 251.196C143.2 241.782 142.864 236.738 142.527 236.066ZM143.872 106.279C148.243 93.502 146.562 81.0613 138.829 69.6293C135.466 64.5858 131.432 61.2234 126.724 59.8785C121.681 58.5335 116.301 59.8785 110.921 63.9133C112.266 65.2582 115.292 67.2757 120.336 69.2931C124.707 71.3105 127.733 73.3279 129.078 75.6815C130.087 77.0265 131.432 83.415 133.113 94.5107C134.458 102.244 138.156 106.279 143.872 106.279ZM244.07 53.8263C227.931 44.0754 206.076 39.3681 178.505 39.3681C150.261 39.3681 128.742 44.7479 114.284 55.5074C120.336 54.835 131.095 52.8176 146.562 49.119C160.348 45.7566 171.444 44.0754 179.849 44.0754C187.247 44.0754 198.342 45.7566 213.137 49.4552C226.586 52.8176 237.009 54.4987 244.07 53.8263ZM129.078 149.317C117.982 148.308 114.284 156.714 117.646 173.862C119.327 182.268 128.069 192.691 143.872 205.132C146.898 196.39 144.881 187.312 137.484 178.233C130.087 168.482 127.061 158.732 129.078 149.317ZM134.121 280.785C153.287 274.397 160.348 264.982 155.304 252.878C154.968 252.878 153.959 252.541 152.951 251.869C151.942 251.196 151.269 251.196 150.261 251.196C146.898 259.602 138.493 265.654 125.716 269.353C120.336 287.846 117.31 296.588 117.31 295.579C120.672 295.243 124.034 292.89 126.724 289.191C129.75 284.147 132.44 281.458 134.121 280.785ZM157.322 127.798C149.588 125.108 142.527 125.444 135.466 129.479C130.087 132.842 125.716 137.549 122.689 143.937C129.414 146.963 136.475 146.627 143.2 142.929C149.252 139.902 153.959 134.859 157.322 127.798ZM225.914 124.436C221.879 117.375 215.49 111.995 206.412 107.96C198.006 104.262 188.592 102.244 178.505 102.244C168.417 102.58 159.003 104.598 150.933 108.296C142.191 112.667 135.803 118.72 132.44 126.453C143.872 120.065 154.968 120.737 165.391 128.134C168.754 125.108 173.461 123.763 179.513 123.763C185.565 123.763 189.937 125.108 193.635 128.134C197.334 124.436 203.05 122.418 210.111 122.754C211.119 122.418 216.499 123.091 225.914 124.436ZM155.304 162.094C155.641 155.369 153.623 150.662 148.916 147.972C144.545 145.618 139.501 145.955 134.121 148.981C134.458 153.688 136.475 157.387 141.182 159.404C143.536 160.749 148.243 161.758 155.304 162.094ZM158.667 167.138C153.959 168.146 149.252 167.474 145.217 165.12C139.837 162.43 136.139 160.749 134.121 160.749C134.794 170.836 139.837 179.578 148.916 186.975C152.614 185.294 155.977 178.57 158.667 167.138ZM135.466 305.33C140.846 303.985 145.217 300.623 148.243 295.579C151.606 290.2 152.278 284.82 150.261 279.104C143.872 278.095 139.165 281.121 136.475 287.51C134.458 293.226 134.121 298.942 135.466 305.33ZM142.527 157.387C139.837 155.033 139.837 152.679 142.191 150.326C144.545 147.972 146.898 147.972 149.252 150.662V157.387H142.527ZM157.322 99.8905C161.357 91.4846 162.029 82.07 159.003 71.983C155.977 60.551 149.588 55.1712 140.846 55.8437C144.545 58.5336 146.898 65.9307 147.907 77.699C148.916 89.8034 150.933 97.2006 153.959 100.227H157.322V99.8905ZM171.78 226.315C155.977 205.132 148.58 195.718 148.58 198.407C144.209 203.115 141.855 209.839 142.191 219.254C142.527 228.332 145.217 235.057 149.925 239.428C163.038 237.411 170.099 233.04 171.78 226.315ZM208.093 191.683C202.041 182.941 197.67 175.543 194.98 168.819C184.557 170.836 174.133 170.836 163.71 168.819C162.365 171.845 160.348 175.88 157.322 181.259C154.296 186.975 151.942 191.01 150.597 193.7C155.304 201.097 165.391 204.796 180.186 204.796C194.98 204.796 204.395 200.425 208.093 191.683ZM168.754 164.111C166.064 154.024 164.719 148.645 164.383 148.645C163.374 142.929 164.383 137.549 166.736 132.842C163.71 131.16 160.348 131.833 157.322 134.523C154.296 137.213 152.614 140.575 151.942 144.274C157.658 151.334 160.348 154.697 159.675 153.688C161.693 157.387 161.357 161.422 158.33 165.793C161.02 166.465 164.383 166.129 168.754 164.111ZM153.623 246.153C170.771 248.843 187.583 248.843 204.731 246.153C198.006 238.756 189.264 235.057 179.177 235.057C169.09 235.057 160.348 238.756 153.623 246.153ZM168.754 211.521C170.099 212.529 171.444 214.883 173.125 218.918C174.806 222.616 177.16 224.634 179.849 224.634C181.867 223.961 183.884 221.608 185.565 217.909C187.247 214.21 189.264 211.857 191.281 211.521C192.29 211.521 193.299 212.193 194.308 213.538C195.316 214.883 196.325 215.219 198.006 214.883C198.342 213.874 199.351 212.866 201.369 210.848C203.05 209.503 203.386 207.486 202.713 205.132C186.91 208.158 171.107 208.158 155.304 205.132C154.968 207.486 155.304 209.503 156.649 210.848C158.667 212.866 160.012 213.874 160.012 214.883C161.693 215.555 163.038 214.883 164.046 213.538C165.391 211.857 166.736 211.184 168.754 211.521ZM160.348 310.374C164.719 306.003 168.081 297.261 170.435 285.156C173.125 269.353 175.142 259.938 176.823 256.24C166.736 250.524 160.684 255.567 158.667 271.37C157.658 280.785 158.33 293.898 160.348 310.374ZM167.073 50.4639C165.055 62.9046 164.046 71.983 164.046 77.3627C164.383 87.786 168.417 94.1745 175.478 96.5281C177.496 87.4498 177.832 79.0439 177.496 70.638C176.487 59.206 172.789 52.4813 167.073 50.4639ZM179.849 169.155C183.548 168.819 186.238 166.465 188.255 162.43C189.937 158.732 190.609 154.024 190.273 148.308C189.6 135.195 185.565 127.126 178.505 124.436C172.116 128.134 168.754 136.876 168.417 149.653C168.081 155.369 169.09 160.077 170.771 163.439C173.125 167.474 176.151 169.155 179.849 169.155ZM183.548 280.785C175.142 279.44 171.444 283.475 172.116 292.217C172.789 300.959 175.478 306.339 180.186 308.356C183.212 304.658 185.229 299.95 186.238 295.243C186.91 289.191 186.238 284.484 183.548 280.785ZM191.618 50.4639C185.565 52.1451 182.203 59.206 181.531 70.638C180.858 78.7077 181.531 87.4498 183.548 96.5281C190.273 94.5107 193.971 88.1222 194.644 77.3627C194.644 71.983 193.635 62.9046 191.618 50.4639ZM181.531 259.266C180.522 262.292 185.565 279.44 196.325 310.374C199.351 302.977 200.696 292.89 200.024 280.113C199.351 266.999 196.997 257.921 192.963 252.878C187.247 251.533 183.212 253.55 181.531 259.266ZM204.731 213.202C192.626 226.651 186.574 231.358 186.574 227.996C189.6 234.048 196.997 238.083 207.757 239.428C212.801 235.057 215.49 227.996 215.827 218.245C216.163 208.158 213.473 201.434 207.757 198.071C207.421 199.752 206.076 204.796 204.731 213.202ZM193.299 131.16C193.635 147.636 192.626 158.732 189.937 164.111C193.971 166.129 197.334 166.465 199.687 165.456C196.661 161.085 196.325 157.05 198.679 153.016C204.058 145.282 206.412 141.92 206.076 142.592C203.386 135.868 199.015 131.833 193.299 131.16ZM217.844 55.5074C208.429 55.5074 202.377 60.551 199.351 70.638C196.997 78.7077 196.661 88.4585 198.342 99.5543C203.05 99.5543 206.412 97.5368 208.429 93.502C209.774 90.8121 210.447 86.1048 210.783 79.7164C211.119 71.983 211.456 66.9394 211.792 64.5858C212.464 60.2147 214.482 56.8524 217.844 55.5074ZM199.687 167.138C200.024 168.146 200.696 170.164 201.369 173.526C201.705 175.88 202.377 177.897 203.05 179.578C204.731 183.949 207.421 186.303 211.119 186.975C212.128 185.63 213.473 183.613 215.49 181.259C217.508 178.906 218.853 177.225 219.861 175.88C222.888 171.509 224.569 166.465 224.569 160.749C222.551 161.085 218.517 162.43 213.137 165.12C209.102 167.474 204.395 168.146 199.687 167.138ZM203.05 269.017C213.809 274.397 226.25 283.139 240.708 295.243C241.381 284.147 237.009 275.405 227.931 268.344C214.818 258.594 207.421 252.541 206.076 250.86C205.74 251.869 205.067 252.205 204.058 252.541C202.713 253.214 201.705 253.55 201.369 253.886C201.032 259.602 201.369 264.646 203.05 269.017ZM201.369 129.479C211.792 144.946 223.224 149.99 236.001 144.274C233.647 138.221 228.94 133.178 222.215 129.143C214.482 124.772 207.757 125.108 201.369 129.479ZM203.05 162.094C210.111 161.422 214.818 160.413 217.508 159.404C221.879 157.387 224.233 154.024 224.569 148.981C219.189 145.955 214.145 145.618 209.438 147.972C204.731 150.662 202.713 155.369 203.05 162.094ZM222.888 305.33C224.233 302.977 224.569 299.614 223.56 294.907C221.879 286.837 221.206 283.139 221.206 283.811C216.499 280.449 212.128 278.768 208.093 278.768C206.076 284.484 206.748 289.863 210.111 295.243C213.137 300.287 217.508 303.649 222.888 305.33ZM211.119 149.317C213.473 148.645 215.154 148.981 216.499 149.99C217.508 150.998 217.844 152.343 217.844 153.688C217.508 155.369 216.499 156.378 215.49 157.05C214.145 158.059 212.128 158.059 210.111 157.387C209.102 154.024 209.774 151.334 211.119 149.317ZM229.276 73.6641C230.285 72.6554 233.647 71.3105 239.363 68.9568C243.734 67.2757 246.424 64.922 247.433 62.2321C235.665 56.1799 226.25 58.8698 219.189 70.638C212.464 81.3975 210.783 93.502 214.818 106.615C220.87 106.279 224.569 102.244 225.914 93.8382C227.259 81.3975 228.604 74.6728 229.276 73.6641ZM239.363 178.906C241.717 172.181 242.389 165.793 241.717 160.413C240.708 153.016 236.673 149.317 229.276 149.317C231.293 158.732 228.267 168.146 220.87 178.233C213.809 187.312 211.456 196.39 214.482 205.132C230.285 189.665 238.354 180.923 239.363 178.906ZM216.163 252.541C221.206 254.559 228.267 259.602 237.346 267.672C245.752 275.069 252.14 279.44 257.184 280.449C256.847 269.017 251.804 259.938 242.053 252.541C239.699 250.86 235.328 248.17 228.94 244.472C223.224 241.109 219.189 238.083 216.163 235.73C214.818 237.074 214.145 240.101 214.145 244.135C214.145 248.17 214.818 251.196 216.163 252.541ZM219.525 224.97C228.604 235.057 242.389 244.472 260.546 252.878C260.882 253.55 261.555 254.895 262.563 257.249C263.572 259.266 264.581 260.611 264.917 261.62C267.271 264.982 269.624 265.991 271.978 264.31C269.961 252.205 263.908 241.782 253.821 233.376C244.743 225.642 234.32 221.271 222.551 219.926C221.543 220.263 221.206 220.935 220.534 221.944C220.198 223.625 219.861 224.634 219.525 224.97ZM265.589 70.3018C261.218 76.6903 251.804 79.7164 237.682 80.0526C229.612 91.1484 225.914 103.253 226.25 116.366C231.966 116.03 236.001 112.331 238.354 104.598C241.044 96.1919 244.07 91.1484 247.433 90.1397C253.485 90.8121 258.865 88.4585 263.236 82.7425C267.271 77.699 268.279 73.3279 265.589 70.3018ZM280.384 218.245C281.729 218.582 284.419 219.926 288.79 222.616C291.816 224.97 294.506 224.97 296.859 223.289C297.196 220.599 296.859 217.237 295.514 213.874C294.169 210.512 292.488 208.158 290.135 206.477C284.082 202.442 271.642 200.089 252.476 199.752C231.966 199.08 223.896 203.787 227.931 213.202C233.311 216.9 241.044 218.918 251.131 218.918C252.813 218.918 257.52 218.582 265.253 218.245C270.969 217.909 276.013 217.909 280.384 218.245ZM278.703 83.415C274.332 85.4324 270.633 89.4672 267.607 95.8557C264.581 102.917 261.555 107.624 258.865 109.978C258.192 110.65 253.149 112.667 243.734 116.366C237.346 118.72 233.647 122.754 232.638 128.47C238.354 130.824 245.415 129.143 254.157 124.099C267.607 116.366 274.668 112.331 275.34 111.995C275.34 109.641 276.349 104.598 278.03 97.2006C279.711 90.8121 279.711 86.4411 278.703 83.415ZM237.682 193.7C238.691 194.036 252.476 195.045 278.703 197.062C295.178 198.407 305.601 202.778 309.973 210.176C310.309 205.132 308.964 200.089 306.274 195.381C303.248 190.338 298.877 186.975 293.497 185.294C285.427 182.941 273.995 181.932 258.865 182.268C241.381 182.941 234.32 186.639 237.682 193.7ZM306.61 142.592C297.196 134.859 285.427 133.178 271.642 136.876C263.572 139.23 253.149 144.274 240.708 152.343C245.415 156.714 250.459 158.395 255.839 157.723C259.201 157.05 263.908 155.369 269.961 151.671C284.755 143.601 297.196 140.239 306.61 142.592ZM271.978 123.091C261.891 124.099 254.83 125.444 250.795 127.126C244.07 130.152 242.053 135.531 245.415 142.929C251.131 142.256 257.856 139.566 265.253 134.523C272.987 129.815 279.375 126.789 284.755 126.117C285.427 121.41 288.117 114.349 293.161 104.934C288.117 104.598 283.746 106.951 280.72 111.995C276.685 118.383 273.995 122.082 271.978 123.091ZM260.546 93.502C255.502 93.1658 251.131 94.847 247.769 98.2093C244.407 101.572 243.734 105.606 245.752 109.641C253.485 106.615 258.529 101.235 260.546 93.502ZM245.752 175.543C253.485 175.207 264.917 172.517 279.375 167.138C291.816 162.43 303.248 160.749 312.999 162.43C310.981 158.059 306.61 155.033 299.549 153.688C296.523 153.016 289.462 152.679 278.366 152.679C277.021 156.714 270.633 160.077 260.21 162.43C250.459 164.448 245.752 168.819 245.752 175.543ZM250.795 60.551C251.804 60.551 252.14 61.5597 252.14 62.5684C251.804 63.5771 251.468 64.5858 250.795 65.2583C251.131 65.5945 252.14 66.267 253.149 66.9394C254.494 67.9481 255.502 68.6206 255.839 68.9568C258.192 70.3018 260.21 69.9655 261.891 68.2844C261.891 65.9307 260.21 63.5771 256.847 61.5597C253.821 59.8785 251.804 59.5423 250.795 60.551ZM260.546 236.066C262.9 236.738 273.323 240.437 291.816 247.498C293.497 240.101 290.135 233.712 282.401 227.66C274.332 221.608 266.598 221.271 258.529 226.315C258.192 227.996 258.529 229.677 259.537 231.358C260.546 232.703 260.882 234.385 260.546 236.066ZM303.248 181.932C304.929 182.604 306.61 184.286 309.3 187.648C311.317 190.338 313.671 191.683 316.697 191.683C315.016 185.294 312.999 178.57 310.309 172.181C304.257 167.81 296.523 166.465 286.436 168.482C276.349 170.5 269.961 174.198 267.271 180.251C271.642 181.596 277.358 181.932 284.755 180.923C291.816 180.251 298.204 180.587 303.248 181.932ZM283.746 86.7773C282.401 91.4846 283.41 95.5194 286.1 98.5455C288.79 101.908 292.152 102.244 295.514 99.8905C294.169 98.8818 292.488 96.5281 290.135 93.1658C287.445 90.1397 285.427 87.786 283.746 86.7773ZM296.523 106.279C295.851 111.322 297.196 117.375 300.894 124.772C307.283 137.549 310.309 143.601 309.973 142.592C308.628 149.99 310.981 155.033 316.361 157.387C313.335 133.85 306.61 117.038 296.523 106.279ZM318.042 181.932C315.689 168.819 315.016 162.766 316.361 163.775C316.361 165.12 315.689 166.129 314.007 166.465C312.326 166.801 311.317 167.81 311.317 168.819C312.999 169.491 314.344 171.509 315.016 174.871C316.361 178.57 317.37 180.923 318.042 181.932ZM316.361 196.726C313.335 197.399 311.654 197.735 311.317 198.407C312.662 198.744 313.671 199.752 314.007 202.106C314.344 204.46 315.352 206.141 316.361 206.477V196.726Z" fill="#FE5900"/>
</svg>
