<svg width="298" height="90" viewBox="0 0 298 90" fill="none" xmlns="http://www.w3.org/2000/svg">
<path d="M86.0955 36.0253L53.7585 3.68821C48.8408 -1.2294 40.7938 -1.2294 35.8762 3.68821L3.68821 36.0253C-1.2294 40.9429 -1.2294 48.9899 3.68821 53.9075L35.8762 86.2445C40.7938 91.1621 48.8408 91.1621 53.7585 86.2445L86.0955 53.9075C91.0131 48.9899 91.0131 40.9429 86.0955 36.0253Z" fill="white"/>
<path d="M44.5193 37.5154L44.8174 38.2605L45.4134 40.1978C48.0958 48.8408 41.837 53.1624 38.5586 54.3545L29.7665 57.3349L33.3429 67.7662L59.7192 58.8251L61.5074 64.1898C62.9976 68.6603 60.6133 73.4289 56.2918 74.9191L34.5351 82.37L36.3233 84.1583C40.9429 88.7778 48.5428 88.7778 53.3114 84.1583L62.9976 74.4721C65.5309 71.9387 66.4251 68.2133 65.2329 64.9349L57.1859 41.2409C54.6526 33.6409 58.6761 25.4449 66.276 22.7626L67.0211 22.6136L76.8564 51.2251C77.8995 54.3545 77.8995 57.6329 77.0054 60.6133L83.8602 53.7585C88.4798 49.1389 88.4798 41.5389 83.8602 36.7703L65.829 18.7391L51.0761 23.8057L46.4566 10.394L50.7781 8.90385C52.2683 8.30778 53.9075 8.15876 55.3977 8.30778L53.3114 6.22152C48.6918 1.60194 41.0919 1.60194 36.3233 6.22152L24.4018 18.143L43.6252 11.5862L47.9467 24.8489L21.7195 33.79L25.1469 43.9232L38.1115 39.6017H37.8135" fill="#E20613"/>
<path d="M8.45682 41.5389C7.71172 39.4526 7.41369 37.2174 7.5627 35.1311L5.9235 36.7703C1.30392 41.3899 1.30392 48.9898 5.9235 53.7584L16.0568 63.8917L8.45682 41.5389Z" fill="#E20613"/>
<path d="M171.93 11.1392H159.562H157.922H115.899C111.727 11.1392 108.299 14.5666 108.299 18.7391V46.3076H128.268C128.268 46.3076 137.954 46.3076 142.425 46.3076C146.001 46.3076 149.577 46.3076 152.409 43.9233C155.24 41.539 155.985 37.9625 155.985 34.3861C155.985 28.7234 152.26 26.1901 147.342 24.8489L144.958 24.1038C143.319 23.6567 140.934 22.7626 140.934 20.6764C140.934 18.7391 143.17 18.5901 144.809 18.5901C146.15 18.5901 150.323 18.5901 153.601 18.5901C155.985 18.5901 157.922 20.5273 157.922 23.0607V41.0919C157.922 43.9233 160.307 46.3076 163.138 46.3076H166.864H167.013C167.013 46.3076 167.013 45.1154 167.013 43.7743V34.5351H172.228C180.275 34.5351 184.746 30.9586 184.746 22.6136C184.746 14.7156 179.53 11.1392 171.93 11.1392ZM124.691 24.8489H117.389V19.0372H131.695C131.397 19.9313 131.248 20.9744 131.248 22.1665C131.248 29.0214 134.974 30.5116 140.785 32.1508C142.723 32.7469 146.299 33.641 146.299 36.1743C146.299 38.7076 143.021 38.8566 140.785 38.8566H128.119H117.24V32.7469H122.605C125.287 32.7469 127.523 30.5116 127.523 27.8293V24.9979L124.691 24.8489ZM168.652 27.3822H167.162V18.5901H168.652C172.228 18.5901 175.209 18.5901 175.209 23.0607C175.209 27.3822 171.93 27.3822 168.652 27.3822ZM204.118 9.94702C193.985 9.94702 184.746 17.398 184.746 27.9783C184.746 39.3037 192.942 47.3507 204.118 47.3507C215.295 47.3507 223.491 39.3037 223.491 27.9783C223.64 17.547 214.252 9.94702 204.118 9.94702ZM204.118 38.7076C198.605 38.7076 194.134 34.2371 194.134 28.2763C194.134 23.3587 198.605 19.0372 204.118 19.0372C209.632 19.0372 214.102 23.5077 214.102 28.2763C214.102 34.2371 209.632 38.7076 204.118 38.7076ZM292.933 24.8489H285.78V19.0372H298V15.0137C298 12.9274 296.361 11.2882 294.275 11.2882H280.267H276.69H238.393H234.369H224.683V46.4566H233.773V32.8959H233.922L242.565 46.4566H253.89L242.863 32.0018C247.781 31.1077 250.612 26.9351 250.612 22.0175C250.612 20.8254 250.463 19.9313 250.314 18.8881H258.957V42.8801C258.957 43.6252 258.957 46.3076 258.957 46.3076H262.981C265.812 46.3076 268.196 43.9233 268.196 41.0919V18.8881H276.69V46.3076H298V38.5586H285.78V32.4488H291.443C293.976 32.4488 296.063 30.3626 296.063 27.8293V24.6999L292.933 24.8489ZM234.667 26.9351H233.922V18.143H234.816C237.796 18.143 241.224 18.7391 241.224 22.4646C241.075 26.3391 237.796 26.9351 234.667 26.9351Z" fill="#221E1F"/>
<path d="M144.064 38.4097C143.766 38.4097 143.468 38.5587 143.17 38.5587C143.468 38.4097 143.766 38.4097 144.064 38.4097Z" fill="white"/>
<path d="M146.448 36.0254C146.448 36.3234 146.448 36.6215 146.299 36.9195C146.448 36.6215 146.448 36.3234 146.448 36.0254Z" fill="white"/>
<path d="M145.852 37.3665C145.703 37.5155 145.405 37.6645 145.256 37.8135C145.554 37.8135 145.703 37.6645 145.852 37.3665Z" fill="white"/>
<path d="M151.217 44.6685C150.472 45.1155 149.726 45.4136 148.832 45.7116C149.726 45.5626 150.472 45.1155 151.217 44.6685Z" fill="white"/>
<path d="M155.538 38.4097C155.389 39.3038 155.091 40.0489 154.644 40.794C155.091 40.0489 155.389 39.3038 155.538 38.4097Z" fill="white"/>
<path d="M152.26 43.9231C153.005 43.327 153.601 42.7309 154.048 41.9858C153.601 42.7309 153.005 43.327 152.26 43.9231Z" fill="white"/>
<path d="M204.118 47.4999C192.793 47.4999 184.746 39.4529 184.746 28.1274C184.746 39.4529 192.793 47.4999 204.118 47.4999C215.444 47.4999 223.491 39.4529 223.491 28.1274C223.64 39.4529 215.444 47.4999 204.118 47.4999Z" fill="white"/>
<path d="M162.095 46.3076C161.35 46.1586 160.754 45.8605 160.307 45.5625C160.754 45.8605 161.499 46.1586 162.095 46.3076Z" fill="white"/>
<path d="M155.985 34.535C155.985 35.4291 155.985 36.3232 155.836 37.2174C155.985 36.3232 155.985 35.4291 155.985 34.535C155.985 34.088 155.985 33.6409 155.836 33.1938C155.985 33.6409 155.985 34.088 155.985 34.535Z" fill="white"/>
<path d="M179.679 33.0449C178.636 33.641 177.593 33.939 176.401 34.2371C177.593 34.0881 178.785 33.641 179.679 33.0449Z" fill="white"/>
<path d="M158.817 44.0723C159.264 44.6683 159.711 45.1154 160.158 45.4134C159.711 45.1154 159.264 44.6683 158.817 44.0723Z" fill="white"/>
<path d="M111.727 78.9427H108.299V51.5233H111.727V78.9427ZM116.495 50.1821L137.06 71.7898V51.5233H140.487V79.9859L119.923 58.5272V78.9427H116.495V50.1821ZM152.707 78.9427H149.279V54.6527H142.723V51.5233H159.115V54.6527H152.558V78.9427H152.707ZM161.797 51.5233H176.55V54.6527H165.224V62.2526H176.252V65.382H165.224V75.6643H176.55V78.7937H161.797V51.5233ZM197.71 78.9427H193.687L185.64 67.3193H184.299V78.9427H180.871V51.5233H185.044C187.428 51.5233 190.11 51.5233 192.197 52.8645C194.432 54.2056 195.773 56.7389 195.773 59.4213C195.773 63.2958 193.091 66.5742 189.216 67.0212L197.71 78.9427ZM184.15 64.4879H185.193C188.62 64.4879 192.495 63.8918 192.495 59.4213C192.495 55.0997 188.471 54.5037 185.044 54.5037H184.15V64.4879ZM204.267 72.0879L201.138 78.9427H197.412L210.526 50.4802L223.64 78.9427H219.914L216.785 72.0879H204.267ZM210.675 57.7821L205.757 68.8095H215.444L210.675 57.7821ZM230.495 78.9427H227.067V54.6527H220.51V51.5233H236.902V54.6527H230.346L230.495 78.9427ZM242.863 78.9427H239.436V51.5233H242.863V78.9427ZM257.02 71.7898L265.216 51.5233H268.941L257.02 80.2839L245.098 51.5233H248.824L257.02 71.7898ZM298 65.233C298 73.429 291.592 79.5388 283.694 79.5388C275.796 79.5388 269.388 73.429 269.388 65.233C269.388 57.335 275.945 50.9272 283.694 50.9272C291.443 50.9272 298 57.335 298 65.233ZM294.573 65.233C294.573 59.2723 290.102 54.2056 283.694 54.2056C277.286 54.2056 272.816 59.2723 272.816 65.233C272.816 71.4918 277.882 76.2604 283.694 76.2604C289.655 76.2604 294.573 71.4918 294.573 65.233Z" fill="#221E1F"/>
</svg>
