<svg width="114" height="146" viewBox="0 0 114 146" fill="none" xmlns="http://www.w3.org/2000/svg">
<path d="M56.26 76.1589C75.1172 76.1589 90.404 60.8721 90.404 42.0149C90.404 23.1576 75.1172 7.87085 56.26 7.87085C37.4028 7.87085 22.116 23.1576 22.116 42.0149C22.116 60.8721 37.4028 76.1589 56.26 76.1589Z" stroke="#C4C4C4" stroke-width="1.66286" stroke-miterlimit="10"/>
<path d="M73.72 17.7372C77.4891 20.5087 80.4268 23.9452 82.5331 28.047C85.0828 33.0355 86.0806 38.523 85.6371 44.5092C85.0829 51.8258 82.1451 57.9784 76.8794 63.0224C71.8354 67.8447 65.9046 70.5052 59.0868 71.0041C49.9966 71.7247 42.2366 69.0641 35.8069 63.0224C29.1 56.7035 26.1069 48.611 26.8274 38.8555C27.2154 33.9778 29.0446 29.2664 32.2594 24.7767C37.4143 17.571 44.232 13.5247 52.8234 12.5824C60.916 11.6955 67.8446 13.4138 73.72 17.7372ZM73.1657 64.7961C76.5469 62.3572 79.3183 59.2532 81.3137 55.4841C83.6971 51.1052 84.8611 46.3938 84.8057 41.2944C84.8057 38.4121 84.1406 35.2527 82.9211 31.8161C81.868 28.8784 80.704 26.5504 79.4291 24.7767C76.824 21.1738 73.4428 18.347 69.3411 16.2961C64.5188 13.8572 59.364 12.915 53.9874 13.4138C46.56 14.079 40.2966 17.0721 35.3634 22.3932C30.2086 27.7144 27.6589 34.1995 27.7143 41.8487C27.7697 47.9458 29.3217 53.3224 32.5366 57.923C35.4189 62.1355 39.3543 65.295 44.232 67.4567C48.9434 69.5075 53.932 70.339 59.0868 69.951C64.408 69.4521 69.1194 67.7892 73.1657 64.7961ZM80.2606 40.7401C80.4823 40.6847 81.092 40.6847 82.1451 40.7401C82.9766 40.7955 83.5309 40.6847 83.7526 40.463C84.3069 41.7378 84.3069 43.4561 83.7526 45.6178C83.4754 45.4515 82.9766 45.3407 82.3114 45.2852C81.5354 45.1744 81.0366 45.119 80.7594 45.0635C80.704 44.6755 80.7594 44.1767 80.8703 43.6778C81.0366 43.179 81.092 42.6801 80.9811 42.2921C81.6463 42.2921 82.0343 42.2921 82.0343 42.2921C82.3669 42.3475 82.5886 42.5138 82.5886 42.8464C82.7549 43.2344 82.5886 43.4007 82.2006 43.4007C81.8126 43.4561 81.6463 43.6224 81.8126 43.955C81.8126 44.0658 82.2006 44.1767 82.8657 44.2321C82.644 44.3984 82.7549 43.4561 83.1428 41.5161H80.4269C80.0943 42.4584 79.8726 43.8441 79.8726 45.6178C80.2051 45.7841 81.48 46.0612 83.6971 46.3938C83.6417 46.7264 83.42 47.5578 83.0874 48.8881C82.8103 49.9412 82.5886 50.7172 82.3669 51.2715C81.6463 50.8835 80.6486 50.4955 79.3737 50.2184C79.8726 48.7218 80.1497 47.835 80.2051 47.5578C80.316 47.6687 80.5931 47.7241 80.9811 47.7795C81.4246 47.835 81.7017 47.9458 81.8126 48.0567C81.9234 48.4447 81.8126 48.6664 81.4246 48.7772C80.9811 48.8881 80.7594 48.999 80.704 49.1652C80.5377 49.5532 80.6486 49.7195 80.9811 49.7195C81.3691 49.7195 81.5354 49.8304 81.5354 49.9967C81.868 49.8858 82.0897 49.5532 82.2006 48.9435C82.3669 48.1675 82.4777 47.7241 82.5886 47.5578C82.3114 47.3915 81.868 47.2252 81.3137 47.059C80.5377 46.8927 80.0389 46.7818 79.8726 46.7264C79.54 46.9481 79.2629 47.6132 79.0411 48.611C78.8749 49.6087 78.5977 50.2738 78.2651 50.4955C78.5423 50.7172 79.8171 51.2715 82.0897 52.103C80.5377 55.1515 79.8171 56.5927 79.8726 56.4264C79.54 56.371 79.0966 56.1492 78.5423 55.7058C78.0434 55.3178 77.6 55.0961 77.1566 55.0407C77.1566 54.7081 77.3228 54.2647 77.7108 53.8212C78.0434 53.3778 78.2097 52.9898 78.2651 52.6018C78.5423 52.5464 78.764 52.6572 79.0411 52.879C79.3183 53.0452 79.5954 53.1561 79.8726 53.1007C79.8171 53.5441 79.6509 53.7658 79.3183 53.8212C78.8194 53.8767 78.5423 53.9321 78.4869 53.9321C78.4869 54.3201 78.764 54.6527 79.3183 54.9852C79.0966 55.0961 79.54 54.3755 80.704 52.8235C80.4269 52.6018 80.0943 52.3247 79.54 52.103C78.8194 51.7704 78.376 51.6041 78.2651 51.4932C78.2097 51.5487 77.4891 52.7127 76.048 54.9852C76.9903 55.7612 78.0989 56.5372 79.3183 57.147C78.2651 58.5881 77.2674 59.863 76.3251 60.9161C76.048 60.7498 75.7154 60.4172 75.1611 59.863C74.7177 59.4195 74.2743 59.087 73.8863 58.9761C74.0526 58.7544 74.3297 58.3664 74.7177 57.8675C75.0503 57.4241 75.3274 57.0361 75.4937 56.8144C75.5491 56.8698 75.7154 56.9807 75.9371 57.0361C76.1589 57.147 76.2697 57.2024 76.3806 57.2578C76.6577 57.4795 76.824 57.7567 76.824 58.1447C76.6023 58.3664 76.3806 58.4218 75.9926 58.2555C75.66 58.1447 75.3829 58.2001 75.2166 58.4218C75.5491 59.2532 75.9926 59.475 76.5469 59.087C76.7131 58.9207 76.9348 58.699 77.2674 58.3664C77.6 57.9784 77.8217 57.7012 77.9326 57.5904C77.7663 57.4241 76.9348 56.759 75.4937 55.7058C75.272 55.9275 74.8286 56.4264 74.108 57.2024C73.5537 57.8121 73.1103 58.311 72.7777 58.699C73.5537 59.6967 74.4406 60.639 75.4383 61.415C75.1611 61.9138 74.6068 62.4681 73.72 63.0778C72.7777 63.743 72.168 64.2418 71.8909 64.6298C71.1703 64.131 70.5051 63.1887 70.0063 61.9692C70.228 61.9138 70.616 61.6367 71.0594 61.2487C71.4474 60.9161 71.8354 60.6944 72.168 60.639C72.2234 60.8607 72.3897 61.027 72.6669 61.2487C72.944 61.4704 73.0548 61.6921 72.9994 61.9692C72.7223 62.191 72.3897 62.191 72.0017 61.9692C71.6691 61.7475 71.3366 61.8584 71.1149 62.191C71.1703 62.4127 71.2811 62.579 71.5028 62.7452C71.7246 62.9115 71.8909 63.0778 71.8909 63.2995C73.1103 62.8561 73.6646 62.2464 73.6091 61.4704C73.5537 60.7498 72.9994 60.0847 71.8909 59.475C71.6691 59.5858 71.1703 59.9738 70.3389 60.639C69.7291 61.1378 69.1749 61.4704 68.6206 61.6367C70.0063 63.743 70.7823 64.8515 70.7823 64.907C70.3943 65.3504 69.6737 65.7938 68.676 66.2372C67.512 66.7361 66.7914 67.1241 66.4589 67.3458C66.1817 67.1241 65.96 66.6807 65.7383 66.0155C65.5166 65.295 65.2949 64.8515 65.0731 64.6298C65.2394 64.4081 65.572 64.1864 66.1263 63.9647C66.6806 63.743 67.0131 63.5212 67.1794 63.2995C67.4566 63.355 67.6783 63.6321 67.9 64.0755C68.1217 64.519 68.1771 64.7961 67.9554 64.907C68.1771 64.6852 67.7337 64.5744 66.5697 64.6298C66.9023 64.5744 66.9023 65.0178 66.5697 66.0155C67.0131 65.9601 67.9554 65.5721 69.2857 64.9624C69.064 64.7407 68.8423 64.3527 68.5651 63.6875C68.288 63.0778 68.0108 62.6898 67.6783 62.5235C67.2903 62.579 66.6806 62.8561 65.96 63.2441C65.2948 63.5767 64.6851 63.7984 64.1308 63.9092C64.1308 64.519 64.2971 65.2395 64.5743 65.9047C64.9068 66.7915 65.1286 67.4012 65.2394 67.6784C62.0246 68.399 60.3617 68.7315 60.3063 68.7315C60.0846 67.1241 59.9183 66.2372 59.752 66.0155C59.9183 65.7938 60.3063 65.683 60.9714 65.5721C61.6366 65.5167 62.0246 65.3504 62.1908 65.1841C62.4126 65.2395 62.5788 65.4058 62.6343 65.7938C62.6897 66.1818 62.856 66.459 63.0223 66.5144C62.6897 66.847 62.4126 67.0132 62.1354 66.9024C62.08 66.9024 61.8029 66.6807 61.4149 66.2927C61.1931 66.2372 61.0823 66.459 61.0823 66.7915C61.1377 67.2904 61.1377 67.623 61.1377 67.6784C61.8583 67.7338 62.7451 67.5121 63.8537 67.1241C63.7983 66.7915 63.5211 65.9047 63.0223 64.4081C62.5788 64.4635 61.9137 64.6298 61.0269 64.7961C60.1954 65.0178 59.4748 65.1287 59.0314 65.1841C59.0868 65.4058 59.1423 66.071 59.2531 67.1241C59.3086 67.9001 59.4748 68.5098 59.5857 68.9532C59.364 69.0087 58.4771 69.0641 57.0914 69.175C56.0937 69.2304 55.2069 69.2858 54.4308 69.2304C54.6526 68.787 54.708 67.7338 54.708 65.9601C56.1491 66.0155 57.036 66.0155 57.3686 65.9601V67.623C57.036 67.7338 56.7589 67.623 56.5926 67.3458C56.3708 67.0132 56.1491 66.9578 55.7611 67.1241C55.2069 67.8447 55.3731 68.2881 56.26 68.399C57.036 68.5652 57.812 68.4544 58.4771 68.1772C58.4217 68.1772 58.3663 67.1795 58.2 65.1841C56.0937 65.5167 54.6526 65.5167 53.8766 65.1841C53.8766 65.5167 53.8211 66.1264 53.6549 67.0132C53.544 67.7338 53.4886 68.399 53.5994 68.9532C52.8234 69.0087 51.992 69.0087 51.1051 68.8424C49.9411 68.6207 49.1097 68.4544 48.7771 68.4544C48.8326 68.1218 49.1097 67.1795 49.6086 65.4612C49.9411 65.4058 50.3291 65.4612 50.828 65.6275C51.2714 65.7938 51.6594 65.7938 52.0474 65.7384C51.992 65.7938 52.0474 66.1264 52.1029 66.6807C52.1583 67.1241 52.0474 67.3458 51.7703 67.3458C51.3823 67.5675 51.1051 67.4012 51.0497 67.0132C50.9943 66.6252 50.7726 66.459 50.4954 66.5144C50.3846 66.5698 50.2737 66.9024 50.2183 67.623L52.38 68.1772C52.768 68.1218 52.9343 67.7338 52.9343 66.9578C52.8789 66.071 52.9897 65.5721 53.156 65.4058C52.8234 65.1841 52.2137 64.9624 51.2714 64.8515C50.3291 64.6852 49.664 64.5744 49.3314 64.3527C48.9989 64.6298 48.6663 65.1287 48.4446 65.9047C48.112 67.3458 47.9457 68.011 48.0011 67.8447C47.2806 67.9001 46.4491 67.6784 45.6177 67.2904C44.6754 66.847 43.8994 66.5698 43.4006 66.5144C43.456 66.1264 43.8994 65.1287 44.7863 63.5212C45.8949 63.9647 46.7263 64.2972 47.2251 64.5744C46.2828 65.4612 45.8949 65.9601 46.172 65.9601C45.8394 65.8492 45.7286 65.683 45.784 65.4612C45.8394 65.2395 45.784 65.0178 45.6177 64.907C45.2851 64.8515 45.1189 64.907 45.0634 65.1287C44.8971 65.4612 44.8417 65.683 44.8417 65.683C44.8971 65.8492 45.6177 66.1818 47.0034 66.7361C47.336 66.5698 47.5577 66.2372 47.724 65.683C48.0011 64.6298 48.112 64.1864 48.112 64.2972C47.7794 63.9092 47.2251 63.5767 46.3937 63.2441C45.4514 62.8561 44.7863 62.579 44.5091 62.3572C44.0103 63.0224 43.3451 64.0755 42.6246 65.6275C41.8486 65.3504 40.4629 64.519 38.5783 63.1887C38.6891 62.8007 38.9109 62.3572 39.2989 61.8584C39.7977 61.3041 40.0749 60.9161 40.1857 60.7498C40.5737 60.8052 41.0171 61.027 41.4606 61.3595C41.9594 61.7475 42.3474 61.9692 42.6246 62.0801C41.516 62.967 41.0726 63.4658 41.2943 63.4658C41.128 63.2441 41.0726 62.967 41.128 62.579C41.128 62.3018 41.0171 62.0801 40.74 61.8584L39.9086 62.9115C40.0194 63.1887 40.352 63.4658 40.8508 63.743C41.3497 63.9647 41.6823 64.2418 41.7931 64.519C42.1257 64.3527 42.4583 63.9647 42.7354 63.2995C43.068 62.6898 43.4006 62.2464 43.6777 62.0801C42.2366 60.6944 41.1834 59.9738 40.5183 59.9184C39.576 59.8075 38.6337 60.639 37.6914 62.3572C35.8069 60.639 34.7537 59.3641 34.4766 58.5327C34.7537 58.4218 35.1417 58.1447 35.6406 57.6458C36.084 57.2578 36.5274 56.9807 36.9154 56.9252C36.9708 57.2578 37.1926 57.5904 37.636 57.9784C38.024 58.311 38.2457 58.699 38.2457 59.0315C37.8577 59.1978 37.5806 59.475 37.4697 59.863C36.9708 59.6967 36.7491 59.475 36.86 59.1424C37.0263 58.699 37.0817 58.4218 36.9154 58.2555C36.6383 58.2001 36.4166 58.2001 36.3057 58.4218C36.1394 58.6435 35.9731 58.8098 35.8069 58.8098C35.8623 59.1424 36.084 59.5304 36.472 59.863C36.86 60.251 37.1371 60.5835 37.1926 60.9161C37.636 60.8607 38.0794 60.5281 38.412 60.0292C38.9109 59.3087 39.2434 58.9207 39.3543 58.8098C39.1326 58.311 38.8 57.8121 38.1903 57.2578C37.5251 56.5927 37.0817 56.0938 36.9154 55.8721C37.1371 55.7612 36.1394 56.4818 33.9223 58.0338C32.8691 57.0915 31.9269 55.6504 31.2063 53.7104C31.5943 53.655 32.0377 53.4887 32.592 53.1561C33.0909 52.8235 33.5897 52.6572 33.9777 52.6018C34.0331 52.8235 34.2549 53.2115 34.5874 53.7104C34.92 54.1538 35.0309 54.5972 35.0309 55.0407C34.8646 55.0961 34.6983 55.207 34.4211 55.3732C34.1994 55.5395 33.9223 55.595 33.7006 55.595C33.5343 55.2624 33.5343 54.9298 33.7006 54.6527C33.8669 54.3755 33.8669 54.043 33.7006 53.7104C33.5343 53.7658 33.368 53.8767 33.1463 53.9875C32.9246 54.0984 32.7583 54.1538 32.592 54.2092C32.5366 54.6527 32.7029 55.0961 33.0354 55.4841C33.4234 55.9275 33.6451 56.3155 33.6451 56.6481C34.0886 56.5372 34.532 56.3155 35.0309 55.9275C35.5851 55.4841 36.0286 55.1515 36.3611 55.0407C35.0863 52.7681 34.4766 51.6041 34.4766 51.5487C33.9223 51.5487 33.2571 51.7704 32.592 52.2138C31.8714 52.6572 31.2617 52.879 30.7074 52.879C29.9314 50.939 29.3771 49.387 29.0446 48.2784C29.488 48.3338 30.0423 48.223 30.5966 48.0567C31.2063 47.8904 31.7051 47.7795 32.0931 47.7795C32.4257 48.611 32.7029 49.4424 32.8691 50.2184C32.1486 50.551 31.5943 50.7172 31.2617 50.7727C31.1509 50.3847 31.3171 49.8858 31.816 49.387C31.7606 49.0544 31.5943 48.8881 31.3171 48.8881C31.2617 48.9435 31.0954 48.9435 30.9291 48.999C30.7074 49.0544 30.5966 49.1098 30.4857 49.1098C30.4303 49.6087 30.7074 50.4955 31.3171 51.7704C32.6474 51.1607 33.5343 50.7727 34.0331 50.7172C33.3126 48.1121 32.9246 46.7818 32.9246 46.671C32.592 46.671 31.2617 46.9481 28.8783 47.447C28.8229 47.0035 28.712 46.2275 28.5457 45.119C28.3794 44.1767 28.324 43.2898 28.324 42.6247H31.3171C31.2617 42.9572 31.3171 43.3452 31.4834 43.8441C31.6497 44.2875 31.6497 44.6755 31.5943 45.0635C31.428 45.0635 31.2063 45.119 30.8737 45.2852C30.5411 45.3961 30.264 45.4515 29.9869 45.3961C29.9314 44.5092 30.2086 44.1212 30.8183 44.2875C30.7074 43.5115 30.1531 43.3452 29.1554 43.7332C29.4326 44.5092 29.5434 45.2852 29.4326 46.1721C29.876 46.283 30.3749 46.2275 30.9846 46.0612C31.5389 45.895 32.0377 45.8395 32.4257 45.895C32.592 45.5624 32.592 44.9527 32.4257 44.0658C32.204 42.9572 32.1486 42.1812 32.204 41.7932C31.9269 41.627 31.4834 41.627 30.8183 41.6824C29.8206 41.7932 29.0446 41.8487 28.4349 41.7932C28.4349 39.1327 28.4903 37.5252 28.6566 36.9155C29.0446 36.8601 29.5434 36.971 30.1531 37.0818C30.7074 37.2481 31.2063 37.3035 31.7051 37.1927C31.7606 37.6361 31.7051 38.0795 31.5943 38.5784C31.428 39.1327 31.3726 39.5761 31.428 39.9087H29.8206C29.7097 39.4652 29.7651 39.1327 30.0423 38.9664C30.0977 38.8555 30.264 38.8001 30.4303 38.7447C30.652 38.6338 30.7629 38.5784 30.8183 38.5784C30.3194 37.8024 29.8206 37.747 29.4326 38.4121C29.0446 39.0772 28.9337 39.8532 29.2109 40.7401H31.9269C32.204 40.463 32.3703 39.8532 32.4257 38.9664C32.4811 37.9132 32.6474 37.2481 32.7583 36.9155C31.5389 36.3612 30.264 36.0841 28.9337 36.1395C28.8783 35.3635 29.0446 34.5321 29.3771 33.5898C29.7097 32.5367 29.9314 31.7607 29.9869 31.2618C30.3749 31.3172 30.8737 31.4835 31.4834 31.8161C32.0931 32.0932 32.592 32.2595 32.98 32.3704C32.8137 33.091 32.5366 33.9224 32.204 34.8092C31.5389 34.8647 31.04 34.643 30.8183 34.255C30.7629 33.9224 30.8737 33.7007 31.3171 33.6452C31.7606 33.5898 31.9269 33.4235 31.8714 33.2018C31.7051 32.8692 31.3726 32.703 30.8183 32.6475C30.264 33.1464 29.9869 33.9778 29.9869 35.0864C30.2086 35.3081 30.652 35.4744 31.2617 35.5852C32.0377 35.7515 32.5366 35.8624 32.7029 35.9178C32.9246 35.4744 33.1463 34.8647 33.4234 34.0887C33.756 33.1464 33.9223 32.5367 34.0886 32.1487C33.8669 32.1487 32.7029 31.5944 30.652 30.763C30.8737 30.3195 31.2063 29.599 31.7606 28.6012C32.2594 27.7144 32.592 26.9938 32.8137 26.4395C33.2571 26.5504 33.7006 26.8275 34.1994 27.1601C34.8646 27.659 35.308 27.9361 35.4743 28.047C35.4189 28.435 34.9754 29.211 34.144 30.2087C33.8114 30.2087 33.5343 30.0978 33.1463 29.8761C32.7583 29.6544 32.7029 29.4881 33.0354 29.3772C33.0354 28.9892 33.2571 28.8784 33.6451 28.9892C34.0886 29.1001 34.3103 28.9338 34.3657 28.6012C34.3657 28.6567 34.0331 28.3795 33.3126 27.8252C32.98 28.1578 32.5366 28.823 31.9269 29.987C32.1486 30.2087 32.5366 30.4858 33.0909 30.7075C33.8114 31.0401 34.2549 31.2618 34.3657 31.3172C34.6983 30.9847 35.0863 30.4858 35.5297 29.7652C35.9731 28.9338 36.3611 28.3241 36.5829 28.047C35.696 27.0492 34.6983 26.3287 33.5897 25.8852C33.8114 25.2755 34.3103 24.555 35.0309 23.779C35.8069 22.9475 36.3611 22.2824 36.5829 21.7835C37.4143 22.3932 38.1349 23.1692 38.7446 23.9452C38.3011 25.1092 37.5806 25.7744 36.5829 25.8298C36.5829 25.7744 36.4166 25.6081 36.1394 25.2755C35.9177 25.0538 35.9731 24.8875 36.3057 24.7767C36.3611 24.4441 36.5274 24.3332 36.8046 24.4995C37.1926 24.7212 37.4697 24.6104 37.6914 24.2224C37.5251 23.8344 37.248 23.5572 36.86 23.4464C36.4166 23.5018 36.0286 23.779 35.696 24.167C35.0863 25.0538 34.8646 25.4418 34.9754 25.331C35.1971 25.4972 35.5297 25.8298 36.084 26.2178C36.5829 26.6058 36.9154 26.9384 37.1371 27.2155C37.3589 26.8275 37.8577 26.3287 38.5229 25.719C39.1326 25.1092 39.576 24.555 39.8531 24.167C39.7423 23.7235 39.4097 23.2247 38.8554 22.7812C38.2457 22.227 37.8577 21.7835 37.6914 21.5064C37.9131 20.8412 38.412 20.2315 39.2434 19.6772C40.352 18.9012 41.0171 18.4024 41.1834 18.2361C41.904 18.9012 42.4583 19.8435 42.7908 20.9521C42.7354 21.0075 42.4029 21.2292 41.8486 21.5618C41.4606 21.839 41.128 22.0607 40.9617 22.2824C40.74 22.227 40.5183 22.0607 40.352 21.7835C40.1303 21.451 40.0194 21.2292 39.8531 21.1738C39.9086 20.8412 40.1857 20.675 40.5183 20.675C40.6291 20.675 40.7954 20.7304 41.0171 20.7858C41.2389 20.8412 41.4051 20.8967 41.516 20.8967C41.7377 20.675 41.7377 20.4532 41.5714 20.287C41.3497 20.0652 41.2389 19.8435 41.2389 19.5664C40.8509 19.5664 40.4628 19.8435 40.0194 20.2315C39.576 20.6195 39.188 20.8967 38.8 20.9521C38.8554 21.3401 39.1326 21.7281 39.6314 22.1715C40.0749 22.5595 40.352 23.003 40.4074 23.391C41.3497 23.003 42.5691 22.1715 43.9549 20.9521C43.7886 20.5641 43.5669 20.0098 43.1234 19.2892C42.7354 18.6241 42.4583 18.0698 42.292 17.6818C42.68 17.3492 43.4006 16.9612 44.2874 16.5732C45.2851 16.1298 46.0057 15.7972 46.3383 15.5201C47.0588 16.8504 47.3914 17.959 47.3914 18.735C47.0034 18.735 46.56 18.8458 46.1166 19.123C45.6731 19.4001 45.2851 19.5664 44.9526 19.5664C45.0634 19.2892 45.008 18.9567 44.7309 18.5132C44.5091 18.2361 44.5091 18.0144 44.6754 17.959C44.4537 18.2361 44.8971 18.2915 46.0611 18.2361C46.3383 18.1252 46.3937 17.959 46.2274 17.7372C46.0057 17.4047 45.9503 17.0721 46.0611 16.8504C45.7286 16.8504 45.2851 17.0167 44.8417 17.2384C44.3429 17.4601 43.9548 17.6264 43.6223 17.6264C43.6223 18.1252 43.7886 18.6241 44.1211 19.1784C44.4537 19.7881 44.6754 20.287 44.6754 20.6195C46.3383 19.7881 47.6131 19.2338 48.5 19.0121C48.4446 18.5132 48.2783 17.8481 48.0011 17.0721C47.6686 16.1852 47.5023 15.5201 47.4468 15.243C48.6663 14.9104 50.1629 14.5778 52.0474 14.1898C52.1029 14.467 52.2137 15.0212 52.2691 15.8527C52.38 16.5732 52.4909 17.0721 52.6017 17.4047C52.1583 17.3492 51.7149 17.4047 51.216 17.5155C50.6617 17.6818 50.2183 17.6818 49.8857 17.6818C49.9411 17.4047 49.8857 17.1275 49.7749 16.8504C49.6086 16.5732 49.5531 16.3515 49.6086 16.0744C49.9966 15.9081 50.3291 15.9635 50.5508 16.1852C50.7726 16.4624 51.0497 16.5732 51.2714 16.5732C51.5486 16.4624 51.604 16.2961 51.4377 16.019C51.216 15.6864 51.1606 15.4092 51.2714 15.1875C50.9389 15.1875 50.44 15.2984 49.8857 15.4647C49.3314 15.631 48.888 15.7418 48.5 15.7418C48.9434 16.6841 49.2206 17.6818 49.3314 18.735C51.7149 18.2361 53.1006 17.959 53.3777 17.959C53.4331 17.6818 53.3223 17.0167 53.156 15.9081C52.9897 15.1321 53.1006 14.5224 53.3777 14.1344C53.2114 14.2452 54.6526 14.1344 57.7011 13.8572V17.1275H55.0406V15.5201C55.3731 15.3538 55.6503 15.4092 55.7611 15.6864C55.9274 15.9635 56.0937 16.1298 56.3154 16.0744C56.4263 16.0744 56.5371 15.6864 56.5926 14.9658C56.7034 15.1875 55.872 15.1321 54.1537 14.6887V17.6818C54.3754 17.6818 55.0406 17.6818 56.2046 17.6264C57.0914 17.6264 57.6457 17.7372 57.9229 17.959C58.2554 17.6818 58.4217 17.1275 58.4771 16.2961C58.4771 16.0744 58.4771 15.7418 58.4771 15.243C58.4771 14.7441 58.4771 14.4115 58.4771 14.1898C59.1423 14.1344 59.9183 14.1898 60.8051 14.4115C61.8583 14.5778 62.5788 14.6887 63.0223 14.7441C63.0777 15.243 63.0223 15.7418 62.856 16.2961C62.6343 17.0721 62.5234 17.571 62.468 17.6818C62.1354 17.7372 61.7474 17.6818 61.2486 17.5155C60.8051 17.3492 60.4171 17.3492 60.0291 17.4047C60.0846 17.3492 60.0846 17.0167 60.0291 16.4624C59.9737 16.0744 60.0846 15.8527 60.3063 15.7972C60.7497 15.6864 60.9714 15.7418 61.0269 15.9635C61.0823 16.1852 61.0268 16.407 60.8051 16.6287C61.4703 16.7395 61.8028 16.5178 61.8583 16.0744C61.9691 15.5755 61.692 15.2984 61.0269 15.243C60.2509 15.243 59.8074 15.1321 59.6966 14.9658C59.3086 15.0212 59.1423 15.3538 59.1423 16.019C59.1423 17.2384 59.1423 17.7927 59.1977 17.6818C59.4749 17.959 60.0291 18.1807 60.916 18.2915C61.8583 18.4578 62.468 18.5687 62.7451 18.735C63.244 18.0698 63.632 16.9058 63.7983 15.243C64.5188 15.243 65.3503 15.4092 66.1817 15.7972C67.124 16.2407 67.9 16.5178 68.3989 16.5732C68.3434 16.9058 68.1217 17.4047 67.8446 18.0144C67.512 18.5687 67.3457 19.123 67.2903 19.5664C66.1817 19.123 65.4057 18.7904 64.8514 18.5132C65.1286 17.6818 65.2948 17.183 65.4057 17.1275C65.9046 17.0721 66.1263 17.2384 66.0709 17.5155C66.0154 17.9035 66.0154 18.1252 66.1817 18.1807C66.5143 18.2915 66.6806 18.1807 66.736 17.9035C66.9023 17.571 66.9577 17.3492 66.9577 17.3492C66.7914 17.0721 66.0709 16.6841 64.796 16.2961C64.5743 16.4624 64.3526 16.8504 64.1863 17.4601C64.02 18.1252 63.8537 18.5687 63.7429 18.735C64.0754 19.0121 64.6297 19.3447 65.5166 19.6772C66.4034 19.9544 66.9577 20.287 67.2349 20.6195C67.512 20.287 67.8446 19.7327 68.2326 19.0121C68.676 18.2361 68.9531 17.6818 69.1194 17.3492C70.7268 17.8481 71.8354 18.5132 72.4451 19.2892C73.1657 20.287 72.8331 21.1738 71.3366 21.9498C70.616 21.839 70.0617 21.5064 69.6737 20.8412C69.2857 20.1207 69.5074 19.6772 70.5051 19.511C70.7268 19.6772 70.7823 19.9544 70.6714 20.2315C70.616 20.5087 70.616 20.7304 70.7823 20.8967C71.1148 21.0075 71.3366 20.8967 71.4474 20.6195C71.6137 20.287 71.7246 20.1207 71.8354 20.0652C71.7246 19.7881 71.4474 19.4555 70.9486 19.1784C70.3943 18.9012 70.0617 18.6241 69.8954 18.4578C69.5074 18.6241 69.1749 18.9567 68.9531 19.511C68.5097 20.3978 68.288 20.8967 68.288 20.8967C68.5097 21.2292 69.0086 21.6172 69.7846 22.1161C70.5051 22.5595 71.004 23.003 71.2811 23.3355C71.1149 23.4464 71.9463 22.5041 73.72 20.6195C74.3297 20.7858 74.9948 21.2847 75.6046 22.0052C76.3806 22.8921 76.9349 23.4464 77.212 23.6127C76.6577 24.6658 75.9371 25.2755 75.1611 25.3864C74.3297 25.5527 73.72 24.943 73.4429 23.6127C73.6646 23.6681 73.8308 23.5018 73.9417 23.1692C73.9971 22.8367 74.2188 22.7812 74.5514 22.8367C74.7731 23.003 74.7731 23.2801 74.6623 23.6127C74.496 24.0007 74.5514 24.2224 74.7731 24.4441C75.0503 24.555 75.272 24.4441 75.3829 24.2224C75.5491 24.0007 75.7154 23.8898 75.8263 23.8898C75.3829 22.615 74.7731 22.0607 74.0526 22.1715C73.3874 22.2824 72.7223 22.8367 72.0571 23.8898C73.1657 25.3864 74.0526 26.2178 74.7177 26.3287C75.3829 26.4395 76.5469 25.8852 78.0434 24.7212C79.4846 27.5481 80.2051 28.9338 80.2051 28.7675C79.8171 28.7675 79.3737 28.9338 78.8749 29.3218C78.4314 29.7098 77.9326 29.8207 77.4891 29.8207C77.212 28.823 76.824 28.1578 76.3806 27.9361C77.1011 27.0492 77.6554 26.7721 78.0434 27.1601C78.2651 27.3818 78.2651 27.5481 78.0988 27.7144C77.8217 27.9361 77.7663 28.2132 77.7663 28.435C77.988 28.6567 78.2097 28.7121 78.376 28.5458C78.5977 28.2687 78.8194 28.1578 79.0966 28.2132C78.764 26.9384 78.2651 26.2178 77.6 26.1624C77.1011 26.107 76.3251 26.5504 75.272 27.3818C75.4383 27.7144 75.7708 28.2687 76.3251 29.1001C76.7686 29.7652 77.0457 30.375 77.212 30.9292C77.7109 30.8738 78.376 30.6521 79.0966 30.2087C79.8171 29.8207 80.4823 29.599 81.0366 29.599C81.092 29.987 81.3691 30.6521 81.8126 31.6498C82.2006 32.4812 82.3669 33.2572 82.3669 33.9778C80.6486 34.5875 79.8171 34.8647 79.928 34.7538C79.54 34.5321 79.152 33.5898 78.8749 32.0932C79.152 32.1487 79.4291 32.0932 79.6508 31.927C79.928 31.7607 80.2051 31.7607 80.4823 31.8161C80.5931 32.2041 80.5377 32.4812 80.2606 32.703C79.9834 32.9247 79.8726 33.2018 79.928 33.479C80.4823 33.5344 80.9257 33.4235 81.3137 33.2018C81.3137 32.8138 81.1474 32.3704 80.9811 31.927C80.704 31.3172 80.5377 30.9292 80.4823 30.763C80.2051 30.8738 79.7063 31.0401 79.0966 31.3172C78.5977 31.5944 78.0989 31.7607 77.7108 31.8715C78.4314 33.5898 78.8748 34.9755 79.0966 35.9732C79.4846 35.807 80.1497 35.6407 80.9811 35.419C81.868 35.1972 82.5331 35.031 82.8657 34.8647C83.3646 37.1927 83.6417 38.8555 83.6971 39.7424C83.2537 39.687 82.6994 39.7424 82.1451 39.8532C81.5908 40.0195 81.092 40.075 80.6486 40.0195C80.4268 39.9087 80.3714 39.5207 80.3714 38.8001C80.4268 38.135 80.316 37.6915 80.0943 37.5807C80.4268 37.359 80.8148 37.1927 81.1474 37.1372C81.6463 37.0264 81.9234 37.1927 81.9788 37.5807C82.1451 37.9132 81.9788 38.0795 81.5908 38.135C81.2029 38.1904 81.092 38.3567 81.2029 38.6892C81.2029 38.8001 81.5354 38.911 82.256 38.9664C82.5331 38.7447 82.644 38.3012 82.5331 37.6915C82.3668 36.7492 82.256 36.2504 82.256 36.2504C81.7571 36.195 81.2029 36.3058 80.6486 36.4167C79.8726 36.6384 79.4291 36.7492 79.2629 36.8047C79.9834 38.9664 80.1497 40.2967 80.2606 40.7401ZM33.4234 39.4098C33.8114 41.5715 33.9223 42.5692 33.6451 42.403C33.7006 41.9595 33.9777 41.1281 34.4766 39.9641C34.1994 40.075 33.9777 39.9641 33.8669 39.7424C33.7006 39.5207 33.5343 39.4098 33.4234 39.4098ZM33.6451 44.7864C33.7006 44.8972 33.7006 45.1744 33.6451 45.7841C33.5897 46.1721 33.7006 46.3938 33.9223 46.3938C33.9777 46.5601 34.144 46.0058 34.4766 44.7864H33.6451ZM41.7931 41.8487C41.1834 41.0172 40.0749 40.4075 38.5229 40.1304C36.9154 39.8532 35.696 40.075 34.7537 40.7401C34.3103 41.7932 33.9223 42.9018 33.6451 43.955C34.0886 43.955 34.532 43.7332 34.92 43.2344C35.308 42.6801 35.696 42.403 36.084 42.3475C36.5829 42.015 37.636 42.015 39.0771 42.2367C40.4629 42.4584 41.3497 42.3475 41.7931 41.8487ZM36.6383 29.6544C36.472 29.987 36.1394 30.5967 35.6406 31.5944C35.2526 32.4812 34.92 33.1464 34.6429 33.7007C33.9777 35.419 33.7006 36.971 33.9223 38.3012C34.0331 37.8578 34.6429 36.3612 35.8069 33.867C36.6937 32.0378 36.9708 30.6521 36.6383 29.6544ZM53.932 64.5744C60.2509 65.0732 65.6274 63.6321 70.0063 60.1955C73.9417 57.147 76.7686 52.8235 78.5423 47.2252C77.6554 47.6132 76.9903 48.4447 76.5469 49.6641C76.5469 49.5532 76.2697 50.7727 75.6046 53.1561C72.3897 56.5372 69.3411 59.4195 66.4034 61.803C65.7937 61.4704 65.2394 61.5812 64.6851 62.0801C64.02 62.7452 63.4657 63.0778 63.1331 63.1332C58.9206 63.743 54.2646 63.743 49.0543 63.1332C48.8326 63.0224 48.6108 62.8007 48.3337 62.579C48.0011 62.2464 47.8349 62.0801 47.6686 61.9692C47.1143 61.5258 46.5046 61.5258 45.784 61.803C45.2851 61.3041 43.7331 59.8075 41.1834 57.4795C39.2989 55.7612 37.8577 54.2092 36.86 52.879C36.0286 49.8304 35.1971 48.0567 34.4211 47.447C34.4211 47.2807 34.3657 47.2252 34.1994 47.2252C34.0331 47.2252 33.9223 47.3361 33.9223 47.447C37.8023 58.0892 44.4537 63.7984 53.932 64.5744ZM34.1994 39.0772C35.6406 38.6892 37.5806 38.9664 40.0194 39.9641C42.292 40.9064 44.0657 41.1835 45.2851 40.6847C45.0634 39.9641 44.1211 39.3544 42.6246 38.9664C41.128 38.5784 40.1857 38.0795 39.8531 37.4144C38.0794 37.4698 36.9154 37.5252 36.3611 37.5807C35.2526 37.8578 34.532 38.3567 34.1994 39.0772ZM40.1857 42.9018C38.3011 43.0127 36.9154 43.3452 36.084 43.955C35.2526 44.5092 34.6983 45.4515 34.532 46.7264C35.0309 46.8927 35.5851 46.671 36.1394 46.1167C36.8046 45.3961 37.4697 44.9527 38.024 44.8418C38.5783 44.6755 40.1857 44.6755 42.7908 44.7864C44.7309 44.8972 46.0611 44.5092 46.7263 43.7332C46.6709 42.791 45.8949 42.3475 44.2874 42.403C43.844 42.4584 43.1234 42.5138 42.1811 42.6247C41.1834 42.791 40.5183 42.8464 40.1857 42.9018ZM46.1166 37.1927C42.5691 35.6407 40.7954 34.8647 40.74 34.8647C38.4674 34.255 36.6383 34.643 35.308 36.0841C37.0263 35.4744 39.1326 35.9178 41.516 37.4144C42.5137 38.0241 43.2897 38.4121 43.844 38.4675C44.62 38.523 45.396 38.135 46.1166 37.1927ZM48.2783 47.0035C48.3337 46.283 47.6686 45.7841 46.2829 45.5624C45.008 45.3407 43.5114 45.3407 41.7931 45.5624C40.0194 45.7841 38.6337 46.2275 37.6914 46.7818C36.6383 47.447 36.3611 48.2784 36.9708 49.1098C37.4143 49.2761 37.8577 49.2761 38.3566 48.999C39.0771 48.611 39.6314 48.3338 39.964 48.2784C40.0194 48.2784 41.7377 48.3338 45.2297 48.3892C47.1143 48.5001 48.1674 48.0012 48.2783 47.0035ZM38.8 26.6612C38.6337 26.883 38.412 27.271 37.9686 27.8252C37.5806 28.3241 37.3034 28.7675 37.1926 29.1001C37.9131 29.2664 38.4674 29.0447 38.8554 28.3795C39.2434 27.8252 39.2434 27.2155 38.8 26.6612ZM45.3406 35.8624C46.2274 33.8115 44.6754 32.7584 40.74 32.5921C40.5737 32.4258 40.352 32.0932 40.0749 31.6498C39.7423 31.0955 39.576 30.763 39.4097 30.5967C38.8554 29.8207 38.1903 29.5435 37.4697 29.8761C37.9131 30.2087 38.3566 31.3172 38.8554 33.1464C39.7423 33.2572 40.8509 33.7007 42.0703 34.5321C43.2897 35.3635 44.3429 35.807 45.3406 35.8624ZM43.1234 49.6641C41.8486 48.8327 40.5737 48.9435 39.188 49.8858C37.9131 50.8281 37.4143 51.9367 37.6914 53.1561C40.74 51.9921 42.4028 51.327 42.7908 51.2715C42.7354 50.9944 42.7909 50.7172 42.9571 50.4955C43.1789 50.2184 43.1789 49.9412 43.1234 49.6641ZM39.8531 26.107C39.6314 26.6058 39.6869 27.3264 39.9086 28.2687C40.2411 29.4881 40.4074 30.3195 40.352 30.7075C40.5183 30.763 41.6823 31.4281 43.844 32.703C45.2851 33.5344 46.4491 33.8115 47.3914 33.4235C47.2251 32.5367 46.6708 31.8715 45.5623 31.4281C45.3406 31.3172 44.8971 31.151 44.1766 30.9292C43.5668 30.763 43.1234 30.5412 42.7908 30.375C42.4583 30.0978 42.0703 29.3218 41.5714 27.9915C41.1834 26.9384 40.6291 26.2732 39.8531 26.107ZM44.7309 49.6641C44.5091 50.2184 43.7886 51.1607 42.5691 52.491C41.5714 53.5441 41.0171 54.6527 41.0171 55.9275C41.4051 56.1492 41.7931 56.0384 42.1257 55.4841C42.2366 55.3178 42.3474 55.0961 42.5137 54.7635C42.7354 54.3755 42.8463 54.1538 42.8463 54.043C46.5046 52.2138 48.7217 50.6064 49.6086 49.1652C49.2206 48.5555 48.5 48.4447 47.6131 48.9435C46.3383 49.4978 45.396 49.775 44.7309 49.6641ZM41.7931 23.9452C41.7377 24.7212 42.0149 25.4972 42.6246 26.1624C43.3451 26.9384 44.232 27.3264 45.3406 27.2155C45.6731 27.4927 46.0611 28.2687 46.56 29.599C46.948 30.7075 47.5577 31.3727 48.3337 31.539C48.888 29.8761 48.3337 27.8807 46.6708 25.5527C44.7863 25.6081 43.1789 25.1092 41.7931 23.9452ZM44.232 22.0607C44.1766 22.227 43.844 22.4487 43.2897 22.7258C42.8463 22.9475 42.6246 23.2801 42.6246 23.6681C43.068 24.1115 43.5114 24.0561 44.0103 23.4464C44.4537 22.7812 44.5646 22.3378 44.232 22.0607ZM45.3406 30.4304C45.6731 29.7652 45.5623 29.1001 44.9526 28.5458C44.3983 27.9915 43.6777 27.7144 42.8463 27.7698C43.2343 29.0447 44.0103 29.9315 45.3406 30.4304ZM50.2183 51.2715C49.7749 51.6595 49.0543 52.1584 48.0566 52.7127C47.0034 53.3224 46.2829 53.7658 45.8949 54.043C44.2874 55.207 43.456 56.759 43.4006 58.6435C44.1766 58.4218 45.3406 57.6458 46.7817 56.4264C48.4446 55.0407 49.664 54.1538 50.44 53.7658C50.3291 52.2138 50.2737 51.3824 50.2183 51.2715ZM50.44 29.8761C51.1606 27.7698 50.8834 25.719 49.6086 23.8344C49.0543 23.003 48.3891 22.4487 47.6131 22.227C46.7817 22.0052 45.8948 22.227 45.008 22.8921C45.2297 23.1138 45.7286 23.4464 46.56 23.779C47.2806 24.1115 47.7794 24.4441 48.0011 24.8321C48.1674 25.0538 48.3891 26.107 48.6663 27.9361C48.888 29.211 49.4977 29.8761 50.44 29.8761ZM66.9577 21.2292C64.2971 19.6218 60.6943 18.8458 56.1491 18.8458C51.4931 18.8458 47.9457 19.7327 45.5623 21.5064C46.56 21.3955 48.3337 21.063 50.8834 20.4532C53.156 19.899 54.9851 19.6218 56.3708 19.6218C57.5903 19.6218 59.4194 19.899 61.8583 20.5087C64.0754 21.063 65.7937 21.3401 66.9577 21.2292ZM48.0011 36.971C46.172 36.8047 45.5623 38.1904 46.1166 41.0172C46.3937 42.403 47.8349 44.1212 50.44 46.1721C50.9389 44.731 50.6063 43.2344 49.3869 41.7378C48.1674 40.1304 47.6686 38.523 48.0011 36.971ZM48.8326 58.6435C51.992 57.5904 53.156 56.0384 52.3246 54.043C52.2691 54.043 52.1028 53.9875 51.9366 53.8767C51.7703 53.7658 51.6594 53.7658 51.4931 53.7658C50.9389 55.1515 49.5531 56.1492 47.4468 56.759C46.56 59.8075 46.0611 61.2487 46.0611 61.0824C46.6154 61.027 47.1697 60.639 47.6131 60.0292C48.112 59.1978 48.5554 58.7544 48.8326 58.6435ZM52.6571 33.4235C51.3823 32.9801 50.2183 33.0355 49.0543 33.7007C48.1674 34.255 47.4468 35.031 46.948 36.0841C48.0566 36.583 49.2206 36.5275 50.3291 35.9178C51.3269 35.419 52.1029 34.5875 52.6571 33.4235ZM63.9646 32.8692C63.2994 31.7052 62.2463 30.8184 60.7497 30.1532C59.364 29.5435 57.812 29.211 56.1491 29.211C54.4863 29.2664 52.9343 29.599 51.604 30.2087C50.1628 30.9292 49.1097 31.927 48.5554 33.2018C50.44 32.1487 52.2691 32.2595 53.9874 33.479C54.5417 32.9801 55.3177 32.7584 56.3154 32.7584C57.3131 32.7584 58.0337 32.9801 58.6434 33.479C59.2531 32.8692 60.1954 32.5367 61.3594 32.5921C61.5257 32.5367 62.4126 32.6475 63.9646 32.8692ZM52.3246 39.0772C52.38 37.9687 52.0474 37.1927 51.2714 36.7492C50.5509 36.3612 49.7194 36.4167 48.8326 36.9155C48.888 37.6915 49.2206 38.3012 49.9966 38.6338C50.3846 38.8555 51.1606 39.0218 52.3246 39.0772ZM52.8789 39.9087C52.1029 40.075 51.3269 39.9641 50.6617 39.5761C49.7749 39.1327 49.1651 38.8555 48.8326 38.8555C48.9434 40.5184 49.7749 41.9595 51.2714 43.179C51.8811 42.9018 52.4354 41.7932 52.8789 39.9087ZM49.0543 62.6898C49.9411 62.4681 50.6617 61.9138 51.1606 61.0824C51.7149 60.1955 51.8257 59.3087 51.4931 58.3664C50.44 58.2001 49.664 58.699 49.2206 59.7521C48.888 60.6944 48.8326 61.6367 49.0543 62.6898ZM50.2183 38.3012C49.7749 37.9132 49.7749 37.5252 50.1629 37.1372C50.5509 36.7492 50.9389 36.7492 51.3269 37.1927V38.3012H50.2183ZM52.6571 28.823C53.3223 27.4372 53.4331 25.8852 52.9343 24.2224C52.4354 22.3378 51.3823 21.451 49.9411 21.5618C50.5508 22.0052 50.9388 23.2247 51.1051 25.1647C51.2714 27.1601 51.604 28.3795 52.1029 28.8784H52.6571V28.823ZM55.0406 49.6641C52.4354 46.1721 51.216 44.6201 51.216 45.0635C50.4954 45.8395 50.1074 46.9481 50.1629 48.5001C50.2183 49.9967 50.6617 51.1052 51.4377 51.8258C53.5994 51.4932 54.7634 50.7727 55.0406 49.6641ZM61.0269 43.955C60.0291 42.5138 59.3086 41.2944 58.8651 40.1858C57.1468 40.5184 55.4286 40.5184 53.7103 40.1858C53.4886 40.6847 53.156 41.3498 52.6571 42.2367C52.1583 43.179 51.7703 43.8441 51.5486 44.2875C52.3246 45.507 53.9874 46.1167 56.4263 46.1167C58.8651 46.1167 60.4171 45.3961 61.0269 43.955ZM54.5417 39.4098C54.0983 37.747 53.8766 36.8601 53.8211 36.8601C53.6549 35.9178 53.8211 35.031 54.2091 34.255C53.7103 33.9778 53.156 34.0887 52.6571 34.5321C52.1583 34.9755 51.8811 35.5298 51.7703 36.1395C52.7126 37.3035 53.156 37.8578 53.0451 37.6915C53.3777 38.3012 53.3223 38.9664 52.8234 39.687C53.2669 39.7978 53.8211 39.7424 54.5417 39.4098ZM52.0474 52.9344C54.8743 53.3778 57.6457 53.3778 60.4726 52.9344C59.364 51.715 57.9229 51.1052 56.26 51.1052C54.5971 51.1052 53.156 51.715 52.0474 52.9344ZM54.5417 47.2252C54.7634 47.3915 54.9851 47.7795 55.2623 48.4447C55.5394 49.0544 55.9274 49.387 56.3708 49.387C56.7034 49.2761 57.036 48.8881 57.3131 48.2784C57.5903 47.6687 57.9228 47.2807 58.2554 47.2252C58.4217 47.2252 58.588 47.3361 58.7543 47.5578C58.9206 47.7795 59.0868 47.835 59.364 47.7795C59.4194 47.6132 59.5857 47.447 59.9183 47.1144C60.1954 46.8927 60.2509 46.5601 60.14 46.1721C57.5349 46.671 54.9297 46.671 52.3246 46.1721C52.2691 46.5601 52.3246 46.8927 52.5463 47.1144C52.8789 47.447 53.1006 47.6132 53.1006 47.7795C53.3777 47.8904 53.5994 47.7795 53.7657 47.5578C53.9874 47.2807 54.2091 47.1698 54.5417 47.2252ZM53.156 63.5212C53.8766 62.8007 54.4309 61.3595 54.8189 59.3641C55.2623 56.759 55.5949 55.207 55.872 54.5972C54.2091 53.655 53.2114 54.4864 52.8789 57.0915C52.7126 58.6435 52.8234 60.8052 53.156 63.5212ZM54.2646 20.675C53.932 22.7258 53.7657 24.2224 53.7657 25.1092C53.8211 26.8275 54.4863 27.8807 55.6503 28.2687C55.9829 26.7721 56.0383 25.3864 55.9829 24.0007C55.8166 22.1161 55.2069 21.0075 54.2646 20.675ZM56.3708 40.2412C56.9806 40.1858 57.424 39.7978 57.7566 39.1327C58.0337 38.523 58.1446 37.747 58.0891 36.8047C57.9783 34.643 57.3131 33.3127 56.1491 32.8692C55.096 33.479 54.5417 34.9201 54.4863 37.0264C54.4309 37.9687 54.5971 38.7447 54.8743 39.299C55.2623 39.9641 55.7611 40.2412 56.3708 40.2412ZM56.9806 58.6435C55.5949 58.4218 54.9851 59.087 55.096 60.5281C55.2069 61.9692 55.6503 62.8561 56.4263 63.1887C56.9251 62.579 57.2577 61.803 57.424 61.027C57.5348 60.0292 57.424 59.2532 56.9806 58.6435ZM58.3108 20.675C57.3131 20.9521 56.7589 22.1161 56.648 24.0007C56.5371 25.331 56.648 26.7721 56.9806 28.2687C58.0891 27.9361 58.6989 26.883 58.8097 25.1092C58.8097 24.2224 58.6434 22.7258 58.3108 20.675ZM56.648 55.0961C56.4817 55.595 57.3131 58.4218 59.0868 63.5212C59.5857 62.3018 59.8074 60.639 59.6966 58.5327C59.5857 56.371 59.1977 54.8744 58.5326 54.043C57.5903 53.8212 56.9251 54.1538 56.648 55.0961ZM60.4726 47.5024C58.4771 49.7195 57.4794 50.4955 57.4794 49.9412C57.9783 50.939 59.1977 51.6041 60.9714 51.8258C61.8029 51.1052 62.2463 49.9412 62.3017 48.3338C62.3571 46.671 61.9137 45.5624 60.9714 45.0081C60.916 45.2852 60.6943 46.1167 60.4726 47.5024ZM58.588 33.9778C58.6434 36.6938 58.4771 38.523 58.0337 39.4098C58.6988 39.7424 59.2531 39.7978 59.6411 39.6315C59.1423 38.911 59.0869 38.2458 59.4749 37.5807C60.3617 36.3058 60.7497 35.7515 60.6943 35.8624C60.2509 34.7538 59.5303 34.0887 58.588 33.9778ZM62.6343 21.5064C61.0823 21.5064 60.0846 22.3378 59.5857 24.0007C59.1977 25.331 59.1423 26.9384 59.4194 28.7675C60.1954 28.7675 60.7497 28.435 61.0823 27.7698C61.304 27.3264 61.4149 26.5504 61.4703 25.4972C61.5257 24.2224 61.5811 23.391 61.6366 23.003C61.7474 22.2824 62.08 21.7281 62.6343 21.5064ZM59.6411 39.9087C59.6966 40.075 59.8074 40.4075 59.9183 40.9618C59.9737 41.3498 60.0846 41.6824 60.1954 41.9595C60.4726 42.6801 60.916 43.0681 61.5257 43.179C61.692 42.9572 61.9137 42.6247 62.2463 42.2367C62.5789 41.8487 62.8006 41.5715 62.9669 41.3498C63.4657 40.6292 63.7429 39.7978 63.7429 38.8555C63.4103 38.911 62.7451 39.1327 61.8583 39.5761C61.1931 39.9641 60.4171 40.075 59.6411 39.9087ZM60.1954 56.7035C61.9691 57.5904 64.02 59.0315 66.4034 61.027C66.5143 59.1978 65.7937 57.7567 64.2971 56.5927C62.1354 54.9852 60.916 53.9875 60.6943 53.7104C60.6389 53.8767 60.528 53.9321 60.3617 53.9875C60.14 54.0984 59.9737 54.1538 59.9183 54.2092C59.8629 55.1515 59.9183 55.983 60.1954 56.7035ZM59.9183 33.7007C61.6366 36.2504 63.5211 37.0818 65.6274 36.1395C65.2394 35.1418 64.4634 34.3104 63.3549 33.6452C62.08 32.9247 60.9714 32.9801 59.9183 33.7007ZM60.1954 39.0772C61.3594 38.9664 62.1354 38.8001 62.5788 38.6338C63.2994 38.3012 63.6874 37.747 63.7429 36.9155C62.856 36.4167 62.0246 36.3612 61.2486 36.7492C60.4726 37.1927 60.14 37.9687 60.1954 39.0772ZM63.4657 62.6898C63.6874 62.3018 63.7428 61.7475 63.5766 60.9715C63.2994 59.6412 63.1886 59.0315 63.1886 59.1424C62.4126 58.5881 61.692 58.311 61.0269 58.311C60.6943 59.2532 60.8051 60.1401 61.3594 61.027C61.8583 61.8584 62.5788 62.4127 63.4657 62.6898ZM61.5257 36.971C61.9137 36.8601 62.1908 36.9155 62.4126 37.0818C62.5788 37.2481 62.6343 37.4698 62.6343 37.6915C62.5788 37.9687 62.4126 38.135 62.2463 38.2458C62.0246 38.4121 61.692 38.4121 61.3594 38.3012C61.1931 37.747 61.304 37.3035 61.5257 36.971ZM64.5189 24.4995C64.6851 24.3332 65.2394 24.1115 66.1817 23.7235C66.9023 23.4464 67.3457 23.0584 67.512 22.615C65.572 21.6172 64.02 22.0607 62.856 24.0007C61.7474 25.7744 61.4703 27.7698 62.1354 29.9315C63.1331 29.8761 63.7429 29.211 63.9646 27.8252C64.1863 25.7744 64.408 24.6658 64.5189 24.4995ZM66.1817 41.8487C66.5697 40.7401 66.6806 39.687 66.5697 38.8001C66.4034 37.5807 65.7383 36.971 64.5189 36.971C64.8514 38.523 64.3526 40.075 63.1331 41.7378C61.9691 43.2344 61.5811 44.731 62.08 46.1721C64.6851 43.6224 66.0154 42.1812 66.1817 41.8487ZM62.3571 53.9875C63.1886 54.3201 64.3526 55.1515 65.8491 56.4818C67.2349 57.7012 68.288 58.4218 69.1194 58.5881C69.064 56.7035 68.2326 55.207 66.6251 53.9875C66.2371 53.7104 65.5166 53.267 64.4634 52.6572C63.5211 52.103 62.856 51.6041 62.3571 51.2161C62.1354 51.4378 62.0246 51.9367 62.0246 52.6018C62.0246 53.267 62.1354 53.7658 62.3571 53.9875ZM62.9114 49.4424C64.408 51.1052 66.6806 52.6572 69.6737 54.043C69.7291 54.1538 69.84 54.3755 70.0063 54.7635C70.1726 55.0961 70.3389 55.3178 70.3943 55.4841C70.7823 56.0384 71.1703 56.2047 71.5583 55.9275C71.2257 53.9321 70.228 52.2138 68.5651 50.8281C67.0686 49.5532 65.3503 48.8327 63.4103 48.611C63.244 48.6664 63.1886 48.7772 63.0777 48.9435C63.0223 49.2207 62.9669 49.387 62.9114 49.4424ZM70.5051 23.9452C69.7846 24.9984 68.2326 25.4972 65.9046 25.5527C64.5743 27.3818 63.9646 29.3772 64.02 31.539C64.9623 31.4835 65.6274 30.8738 66.0154 29.599C66.4589 28.2132 66.9577 27.3818 67.512 27.2155C68.5097 27.3264 69.3966 26.9384 70.1171 25.9961C70.7823 25.1647 70.9486 24.4441 70.5051 23.9452ZM72.944 48.3338C73.1657 48.3892 73.6091 48.611 74.3297 49.0544C74.8286 49.4424 75.272 49.4424 75.66 49.1652C75.7154 48.7218 75.66 48.1675 75.4383 47.6132C75.2166 47.059 74.9394 46.671 74.5514 46.3938C73.5537 45.7287 71.5029 45.3407 68.3434 45.2852C64.9623 45.1744 63.632 45.9504 64.2971 47.5024C65.184 48.1121 66.4589 48.4447 68.1217 48.4447C68.3989 48.4447 69.1749 48.3892 70.4497 48.3338C71.392 48.2784 72.2234 48.2784 72.944 48.3338ZM72.6669 26.107C71.9463 26.4395 71.3366 27.1047 70.8377 28.1578C70.3389 29.3218 69.84 30.0978 69.3966 30.4858C69.2857 30.5967 68.4543 30.9292 66.9023 31.539C65.8491 31.927 65.2394 32.5921 65.0731 33.5344C66.0154 33.9224 67.1794 33.6452 68.6206 32.8138C70.8377 31.539 72.0017 30.8738 72.1126 30.8184C72.1126 30.4304 72.2788 29.599 72.556 28.3795C72.8331 27.3264 72.8331 26.6058 72.6669 26.107ZM65.9046 44.2875C66.0709 44.343 68.3434 44.5092 72.6669 44.8418C75.3829 45.0635 77.1011 45.7841 77.8217 47.0035C77.8771 46.1721 77.6554 45.3407 77.212 44.5647C76.7131 43.7332 75.9926 43.179 75.1057 42.9018C73.7754 42.5138 71.8909 42.3475 69.3966 42.403C66.5143 42.5138 65.3503 43.1235 65.9046 44.2875ZM77.2674 35.8624C75.7154 34.5875 73.7754 34.3104 71.5028 34.9201C70.1726 35.3081 68.4543 36.1395 66.4034 37.4698C67.1794 38.1904 68.0109 38.4675 68.8977 38.3567C69.452 38.2458 70.228 37.9687 71.2257 37.359C73.6646 36.0287 75.7154 35.4744 77.2674 35.8624ZM71.5583 32.6475C69.8954 32.8138 68.7314 33.0355 68.0663 33.3127C66.9577 33.8115 66.6251 34.6984 67.1794 35.9178C68.1217 35.807 69.2303 35.3635 70.4497 34.5321C71.7246 33.7561 72.7777 33.2572 73.6646 33.1464C73.7754 32.3704 74.2188 31.2064 75.0503 29.6544C74.2188 29.599 73.4983 29.987 72.9994 30.8184C72.3343 31.8715 71.8909 32.4812 71.5583 32.6475ZM69.6737 27.7698C68.8423 27.7144 68.1217 27.9915 67.5674 28.5458C67.0131 29.1001 66.9023 29.7652 67.2349 30.4304C68.5097 29.9315 69.3411 29.0447 69.6737 27.7698ZM67.2349 41.2944C68.5097 41.239 70.3943 40.7955 72.7777 39.9087C74.8286 39.1327 76.7131 38.8555 78.3206 39.1327C77.988 38.4121 77.2674 37.9132 76.1034 37.6915C75.6046 37.5807 74.4406 37.5252 72.6114 37.5252C72.3897 38.1904 71.3366 38.7447 69.6183 39.1327C68.0108 39.4652 67.2349 40.1858 67.2349 41.2944ZM68.0663 22.3378C68.2326 22.3378 68.288 22.5041 68.288 22.6704C68.2326 22.8367 68.1771 23.003 68.0663 23.1138C68.1217 23.1692 68.288 23.2801 68.4543 23.391C68.676 23.5572 68.8423 23.6681 68.8977 23.7235C69.2857 23.9452 69.6183 23.8898 69.8954 23.6127C69.8954 23.2247 69.6183 22.8367 69.064 22.5041C68.5651 22.227 68.2326 22.1715 68.0663 22.3378ZM69.6737 51.2715C70.0617 51.3824 71.78 51.9921 74.8286 53.1561C75.1057 51.9367 74.5514 50.8835 73.2766 49.8858C71.9463 48.8881 70.6714 48.8327 69.3411 49.6641C69.2857 49.9412 69.3411 50.2184 69.5074 50.4955C69.6737 50.7172 69.7291 50.9944 69.6737 51.2715ZM76.7131 42.3475C76.9903 42.4584 77.2674 42.7355 77.7108 43.2898C78.0434 43.7332 78.4314 43.955 78.9303 43.955C78.6531 42.9018 78.3206 41.7932 77.8771 40.7401C76.8794 40.0195 75.6046 39.7978 73.9417 40.1304C72.2788 40.463 71.2257 41.0727 70.7823 42.0704C71.5028 42.2921 72.4451 42.3475 73.6646 42.1812C74.8286 42.0704 75.8817 42.1258 76.7131 42.3475ZM73.4983 26.6612C73.2766 27.4372 73.4429 28.1024 73.8863 28.6012C74.3297 29.1555 74.884 29.211 75.4383 28.823C75.2166 28.6567 74.9394 28.2687 74.5514 27.7144C74.108 27.2155 73.7754 26.8275 73.4983 26.6612ZM75.6046 29.8761C75.4937 30.7075 75.7154 31.7052 76.3251 32.9247C77.3783 35.031 77.8771 36.0287 77.8217 35.8624C77.6 37.0818 77.988 37.9132 78.8749 38.3012C78.376 34.4212 77.2674 31.6498 75.6046 29.8761ZM79.152 42.3475C78.764 40.1858 78.6531 39.1881 78.8749 39.3544C78.8749 39.5761 78.764 39.7424 78.4869 39.7978C78.2097 39.8532 78.0434 40.0195 78.0434 40.1858C78.3206 40.2967 78.5423 40.6292 78.6531 41.1835C78.8748 41.7932 79.0411 42.1812 79.152 42.3475ZM78.8749 44.7864C78.376 44.8972 78.0989 44.9527 78.0434 45.0635C78.2651 45.119 78.4314 45.2852 78.4869 45.6732C78.5423 46.0612 78.7086 46.3384 78.8749 46.3938V44.7864Z" fill="#C4C4C4"/>
<path d="M1.10858 136.022C1.10858 131.587 4.93315 127.874 9.4783 127.874C11.5846 127.929 13.5246 128.761 15.132 130.257L13.6354 132.197C12.4714 131.089 11.0303 130.368 9.42287 130.368C6.48515 130.368 3.6583 132.862 3.6583 136.022C3.6583 139.181 6.48515 141.62 9.42287 141.62C11.0857 141.62 12.5269 140.844 13.6354 139.735L15.132 141.731C13.7463 143.061 11.9172 144.114 9.53372 144.114C4.93315 144.114 1.10858 140.456 1.10858 136.022Z" fill="#C4C4C4"/>
<path d="M15.6863 136.022C15.6863 131.532 19.4554 127.874 24.056 127.874C28.6566 127.874 32.4811 131.532 32.4811 136.022C32.4811 140.456 28.712 144.114 24.056 144.114C19.4554 144.114 15.6863 140.456 15.6863 136.022ZM29.9314 136.022C29.9314 132.918 27.2709 130.368 24.1114 130.368C20.952 130.368 18.2914 132.918 18.2914 136.022C18.2914 139.126 20.8966 141.62 24.1114 141.62C27.3263 141.62 29.9314 139.126 29.9314 136.022Z" fill="#C4C4C4"/>
<path d="M50.7726 127.818V143.893H48.2228V135.19L42.8463 143.616L37.4143 135.135V143.837H34.8646V127.763H35.0863L42.8463 139.181L50.6063 127.763L50.7726 127.818Z" fill="#C4C4C4"/>
<path d="M53.7103 137.906V128.151H56.26V137.906C56.26 140.068 57.8674 141.675 59.8074 141.675C61.7474 141.675 63.4103 140.068 63.4103 137.906V128.151H65.96V137.906C65.96 141.509 63.244 144.17 59.8074 144.17C56.4263 144.17 53.7103 141.509 53.7103 137.906Z" fill="#C4C4C4"/>
<path d="M82.0343 128.151V144.17H81.9234L71.5028 133.694V143.948H68.9531V127.929H69.064L79.4291 138.405V128.151H82.0343Z" fill="#C4C4C4"/>
<path d="M85.1937 128.151H87.7434V143.837H85.1937V128.151Z" fill="#C4C4C4"/>
<path d="M90.0714 135.135H98.0531V137.296H90.0714V135.135Z" fill="#C4C4C4"/>
<path d="M108.917 143.893L102.931 136.299V143.893H100.381V128.206H102.931V135.745L108.529 128.206H111.522L105.758 135.911L112.077 143.893H108.917Z" fill="#C4C4C4"/>
<path d="M56.26 79.0412C76.8621 79.0412 93.5634 62.3399 93.5634 41.7378C93.5634 21.1356 76.8621 4.43433 56.26 4.43433C35.6579 4.43433 18.9566 21.1356 18.9566 41.7378C18.9566 62.3399 35.6579 79.0412 56.26 79.0412Z" stroke="#C4C4C4" stroke-width="6.09714" stroke-miterlimit="10"/>
<path d="M80.3714 67.8445C79.7063 68.5651 78.9857 69.2856 78.2097 69.9508C75.8817 72.8331 71.9463 78.5422 72.6669 83.3091H56.2046H55.9829H39.576C40.4074 77.9879 35.4189 71.5582 33.368 69.1193C32.9246 68.7313 32.5366 68.2879 32.1486 67.8999H25.4417C26.6611 69.7291 27.8806 71.669 29.0446 73.9416C35.5297 86.6902 33.756 84.5285 34.5874 98.1085C35.3634 111.688 39.9086 110.026 44.4537 116.289C48.6663 122.109 55.3731 122.275 56.3154 122.22C57.2023 122.22 63.9091 122.054 68.1771 116.289C72.7223 110.026 77.2674 111.688 78.0434 98.1085C78.8194 84.5285 77.0457 86.7456 83.5863 73.9416C84.7503 71.7245 85.9697 69.7291 87.1891 67.8999H80.3714V67.8445ZM56.3709 115.07C51.8811 114.959 48.9434 110.524 48.9434 110.524H63.7429C63.7429 110.524 60.8606 115.125 56.3709 115.07ZM70.8931 92.8428H70.8377H56.3709C54.4309 92.8428 52.8234 94.4502 52.8234 96.4456C52.8234 98.4411 54.4309 100.048 56.3709 100.048H70.8377H70.8931V101.711C70.8931 102.709 70.1171 103.485 69.1194 103.485H43.3451C42.3474 103.485 41.5714 102.709 41.5714 101.711V91.7342C41.5714 90.7365 42.3474 89.9605 43.3451 89.9605H69.1194C70.1171 89.9605 70.8931 90.7365 70.8931 91.7342V92.8428Z" fill="#C4C4C4"/>
</svg>
