<svg width="205" height="34" viewBox="0 0 205 34" fill="none" xmlns="http://www.w3.org/2000/svg">
<path d="M2 16.9C2 8.90001 8.9 2.20001 17.1 2.20001C20.9 2.30001 24.4 3.80001 27.3 6.50001L24.6 10C22.5 8.00001 19.9 6.70001 17 6.70001C11.7 6.70001 6.6 11.2 6.6 16.9C6.6 22.6 11.7 27 17 27C20 27 22.6 25.6 24.6 23.6L27.3 27.2C24.8 29.6 21.5 31.5 17.2 31.5C8.9 31.5 2 24.9 2 16.9Z" fill="#FE5900"/>
<path d="M28.3 16.9C28.3 8.80001 35.1 2.20001 43.4 2.20001C51.7 2.20001 58.6 8.80001 58.6 16.9C58.6 24.9 51.8 31.5 43.4 31.5C35.1 31.5 28.3 24.9 28.3 16.9ZM54 16.9C54 11.3 49.2 6.70001 43.5 6.70001C37.8 6.70001 33 11.3 33 16.9C33 22.5 37.7 27 43.5 27C49.3 27 54 22.5 54 16.9Z" fill="#FE5900"/>
<path d="M91.6 2.10001V31H87V15.4L77.3 30.6L67.5 15.3V31H62.9V2.10001H63.3L77.3 22.7L91.3 2.10001H91.6Z" fill="#FE5900"/>
<path d="M96.9 20.3V2.70001H101.5V20.3C101.5 24.2 104.4 27.1 107.9 27.1C111.4 27.1 114.4 24.2 114.4 20.3V2.70001H119V20.3C119 26.8 114.1 31.6 107.9 31.6C101.8 31.6 96.9 26.8 96.9 20.3Z" fill="#FE5900"/>
<path d="M148 2.70001V31.6H147.8L129 12.7V31.2H124.4V2.20001H124.6L143.3 21.1V2.70001H148Z" fill="#FE5900"/>
<path d="M153.7 2.70001H158.3V31H153.7V2.70001Z" fill="#FE5900"/>
<path d="M162.5 15.3H176.9V19.2H162.5V15.3Z" fill="#FE5900"/>
<path d="M196.5 31.1L185.7 17.4V31.1H181.1V2.70001H185.7V16.3L195.8 2.70001H201.2L190.8 16.6L202.2 31L196.5 31.1Z" fill="#FE5900"/>
</svg>
