<svg width="261" height="71" viewBox="0 0 261 71" fill="none" xmlns="http://www.w3.org/2000/svg">
<path d="M247.038 33.796L261 71C256.885 70.4083 252.773 69.6676 248.585 69.0002L240.72 48.4433L232.638 67.3033C228.671 66.6359 224.775 66.4134 220.808 65.8951L234.989 33.3534L222.127 0H234.032L241.232 18.6351L248.949 0H260.998L247.038 33.796ZM212.727 0H201.925V64.4917C205.452 64.7141 209.124 64.8609 212.727 65.3034V0ZM192.592 63.7509C182.747 63.0859 172.9 62.4966 162.833 62.2717V0H173.854V51.7708C180.175 51.9176 186.493 52.4335 192.592 52.7293V63.7509V63.7509ZM151.074 25.2216V36.3141H136.012V61.5333H125.139V0H156V11.0926H136.014V25.2216H151.077H151.074ZM106.62 11.0926V62.125C102.945 62.125 99.1988 62.125 95.5965 62.2717V11.0926H84.2066V0H118.08V11.0926H106.62V11.0926ZM72.3041 36.9034C67.4556 36.9034 61.723 36.9034 57.6081 37.1283V53.6192C64.0743 53.1743 70.5405 52.6583 77.0796 52.4359V63.0859L46.5873 65.5283V0H77.0773V11.0926H57.6081V26.0333C61.8711 26.0333 68.4102 25.8109 72.3041 25.8109V36.9058V36.9034ZM11.2395 30.6909V69.4451C7.27508 69.89 3.7457 70.4083 0 71V0H10.5082L24.835 40.3091V0H35.8581V66.4134C31.9643 67.0808 27.9952 67.3033 23.8074 67.8926L11.2395 30.6909Z" fill="#E50914"/>
</svg>
