<svg width="140" height="190" viewBox="0 0 140 190" fill="none" xmlns="http://www.w3.org/2000/svg">
<path d="M134.565 21.6125C128.619 25.878 117.246 31.692 102.614 28.0868C77.258 21.8405 70 0 70 0C70 0 62.7429 21.8443 37.3855 28.0868C22.747 31.692 11.3764 25.8761 5.43608 21.6125H0.858032V139.388C0.859932 142.368 1.58573 148.231 6.41743 154.101C12.3844 161.35 22.5057 166.051 36.4925 168.071C47.6351 169.683 55.8725 173.186 61.6827 178.777C65.9501 182.885 70 190 70 190C70 190 74.2047 182.736 78.3182 178.778C84.1274 173.187 92.3696 169.685 103.508 168.072C117.495 166.051 127.617 161.351 133.584 154.102C138.412 148.236 139.139 142.366 139.143 139.389V21.6125H134.565Z" fill="white"/>
<path d="M134.993 26.2047C134.993 26.2047 121.133 36.992 101.607 32.1137C78.8435 26.4242 70 9.37451 70 9.37451C70 9.37451 61.1574 26.4242 38.3925 32.1137C18.8681 36.9929 5.00763 26.2047 5.00763 26.2047V139.382C5.01048 143.229 6.61788 159.563 37.0872 163.966C49.1171 165.707 58.1031 169.574 64.5593 175.787C66.8849 178.018 68.6519 180.289 70.0009 182.373C71.3537 180.29 73.1131 178.018 75.4359 175.787C81.8997 169.574 90.8857 165.707 102.916 163.966C133.382 159.563 134.989 143.229 134.995 139.382V26.2047H134.993Z" fill="#013369"/>
<path d="M69.9999 170.852C69.9999 170.852 78.8425 159.953 101.82 156.408C128.14 152.347 127.358 139.988 127.36 139.362V80.0889H12.6408V139.361C12.6408 139.984 11.8637 152.345 38.1797 156.407C61.1564 159.953 69.9999 170.852 69.9999 170.852Z" fill="white"/>
<path d="M43.2594 123.409L43.2556 95.2192L39.7159 93.2365V85.9272H55.826V93.2365L52.4573 95.2192V152.72L43.8465 150.139L31.3977 113.409L31.3958 137.623L35.3488 140.66V148.122L18.0654 143.729V137.368L22.0203 135.821V95.2429L17.9685 93.2365V85.9272H31.0481L43.2594 123.409Z" fill="#D50A0A"/>
<path d="M72.9127 149.189L76.3631 153.322V160.631L59.2432 154.234V148.03L63.0223 146.482V95.2202L59.266 93.3202V85.9272H88.9924V100.803H82.4583L80.4785 94.6958H72.9127V111.896H78.5909L80.8253 108.63H85.3815V123.937H80.8253L78.6745 120.842H72.9137V149.189H72.9127Z" fill="#D50A0A"/>
<path d="M91.812 151.776V144.467L96.0641 140.977V95.2192L92.4332 93.3192V85.9272H109.575V93.3202L106.206 95.2202V138.149L113.573 136.158L114.985 124.908H122.032V143.703L91.812 151.776Z" fill="#D50A0A"/>
<path d="M15.6229 67.9629L10.435 64.0593H16.7753L18.8691 58.0525L20.9629 64.0593H27.3032L22.1152 67.9638L24.0238 74.0609L18.8691 70.4395L13.7144 74.0609L15.6229 67.9629Z" fill="white"/>
<path d="M38.1332 67.9629L32.9453 64.0593H39.2855L41.3784 58.0525L43.4722 64.0593H49.8134L44.6255 67.9638L46.5341 74.0609L41.3784 70.4395L36.2237 74.0609L38.1332 67.9629Z" fill="white"/>
<path d="M15.6229 47.6482L10.435 43.7446H16.7753L18.8691 37.7368L20.9629 43.7446H27.3032L22.1152 47.6482L24.0238 53.7453L18.8691 50.1229L13.7144 53.7453L15.6229 47.6482Z" fill="white"/>
<path d="M38.1332 47.6482L32.9453 43.7446H39.2855L41.3784 37.7368L43.4722 43.7446H49.8134L44.6255 47.6482L46.5341 53.7453L41.3784 50.1229L36.2237 53.7453L38.1332 47.6482Z" fill="white"/>
<path d="M126.288 74.0609L121.132 70.4386L115.977 74.0609L117.885 67.9629L112.698 64.0584H119.038L121.132 58.0515L123.225 64.0584H129.565L124.378 67.9629L126.288 74.0609Z" fill="white"/>
<path d="M103.777 74.0609L98.6216 70.4386L93.4659 74.0609L95.3754 67.9629L90.1865 64.0584H96.5278L98.6216 58.0515L100.715 64.0584H107.056L101.867 67.9629L103.777 74.0609Z" fill="white"/>
<path d="M126.288 53.7462L121.132 50.1239L115.977 53.7462L117.885 47.6482L112.698 43.7437H119.038L121.132 37.7368L123.225 43.7437H129.565L124.378 47.6482L126.288 53.7462Z" fill="white"/>
<path d="M103.777 53.7462L98.6216 50.1239L93.4659 53.7462L95.3754 47.6482L90.1865 43.7437H96.5278L98.6216 37.7368L100.715 43.7437H107.056L101.867 47.6482L103.777 53.7462Z" fill="white"/>
<path d="M84.2918 31.351C84.2918 31.351 81.6042 32.7513 77.8546 36.4392C78.701 36.9171 79.6529 37.5868 80.1982 38.039C79.632 38.5416 79.0525 39.0831 78.5148 39.5932C76.0752 37.5821 73.534 36.5608 71.5656 36.0801C72.2192 35.6118 72.9127 35.151 73.5986 34.7045C74.6569 34.9743 75.6791 35.3904 75.6791 35.3904C79.9151 32.1661 83.5783 30.7753 83.5783 30.7753C83.5783 30.7753 83.1546 30.5673 82.0213 30.5815C65.3697 30.7972 50.0272 43.2298 52.9237 64.5022C53.2334 66.7585 54.1103 70.8615 55.2246 72.6608C55.5961 69.1202 56.9251 61.2865 60.8733 52.8932C59.5015 52.4011 58.3625 52.1988 58.3625 52.1988C58.7653 51.3533 59.3258 50.275 59.3258 50.275C62.247 50.826 64.8282 52.0477 67.0635 53.8185C66.5268 54.6849 66.1639 55.2511 65.9083 55.6967C65.1246 55.0801 64.3332 54.5472 63.4602 54.0636C59.0237 61.8204 56.9641 69.1411 56.129 72.9838C56.1746 73.2204 56.6582 73.3429 57.0467 73.2926C75.2934 70.9309 83.8358 61.6237 86.435 51.5376C88.145 44.9208 87.5854 38.002 85.2959 32.3599C85.1354 31.9628 84.8228 31.3045 84.2918 31.351ZM68.6025 51.4454C66.2294 49.4675 63.4611 48.2553 60.7451 47.7376C60.7451 47.7376 61.5782 46.3781 62.0523 45.6723C65.3744 46.3297 68.0715 47.8829 69.9572 49.4789C69.4727 50.1715 69.0129 50.8346 68.6025 51.4454ZM71.5988 47.2388C69.3986 45.3911 66.7215 44.0126 63.6882 43.4065C64.1518 42.808 64.6961 42.1706 65.2158 41.5816C67.5309 41.9929 70.4997 43.2127 73.0875 45.3483C72.5574 45.981 72.0643 46.6261 71.5988 47.2388ZM74.9343 43.2251C72.6248 41.3241 70.0361 40.0929 67.2849 39.5068C67.9508 38.8769 68.6329 38.3373 69.2324 37.8376C72.6695 38.6641 74.9837 40.2041 76.5597 41.5132C75.9964 42.0898 75.4511 42.6522 74.9343 43.2251Z" fill="white"/>
</svg>
