<svg width="134" height="170" viewBox="0 0 134 170" fill="none" xmlns="http://www.w3.org/2000/svg">
<path d="M8.98186 36.1415L36.6726 19.4272L62.3676 12.6917L83.3228 16.1842C83.3228 16.1842 101.783 23.4187 102.781 24.4166C103.779 25.4144 120.992 47.118 121.242 48.8642C121.491 50.6105 122.239 89.7767 122.239 89.7767L104.278 117.717L80.3292 147.653L63.116 159.128L41.4124 136.427C41.4124 136.427 22.453 111.231 22.453 109.983C22.453 108.736 5.23987 66.8258 5.23987 63.5827C5.23987 60.3397 8.98186 36.1415 8.98186 36.1415Z" fill="white"/>
<path d="M99.2411 72.2402C95.5551 72.2402 92.2068 73.6548 81.8897 81.058V120.899C99.7758 100.802 104.869 87.0513 104.869 79.9971C104.847 75.06 102.571 72.2402 99.2411 72.2402ZM100.648 45.796C100.648 38.7228 92.582 32.9228 81.8897 32.2202V69.0666C95.3817 61.1353 100.643 53.1804 100.643 45.796H100.648ZM132.396 30.1596C132.223 29.457 132.045 29.1929 131.693 29.1034L119.05 25.7507L117.296 18.5219C117.207 18.1681 117.118 17.9042 116.771 17.8193L103.79 14.2922L102.214 7.4123C102.193 6.99677 101.91 6.6416 101.511 6.53056L67.8115 0.244849C67.2598 0.141365 66.6938 0.141365 66.142 0.244849L32.4288 6.53056C32.0301 6.64144 31.7466 6.99677 31.7253 7.4123L30.1449 14.2922L17.1689 17.8146C16.8172 17.8996 16.7328 18.1636 16.6435 18.5172L14.8897 25.7459L2.27942 29.1034C1.93253 29.1931 1.75407 29.4571 1.58063 30.1596C0.515939 35.7989 -0.0132609 41.5272 0.000252369 47.2672C0.000252369 98.0525 26.3087 142.142 65.5933 168.416C65.9254 168.861 66.4466 169.124 67.0001 169.124C67.5537 169.124 68.0749 168.862 68.407 168.416C107.692 142.142 134 98.0525 134 47.2672C134.002 41.5264 133.463 35.7983 132.391 30.1596H132.396ZM62.0529 145.056C62.0529 145.41 61.7012 145.584 61.3541 145.23C51.7077 134.125 45.222 120.55 40.8373 105.738L34.1734 109.982C32.4195 111.218 31.0173 110.69 29.9528 108.752C21.0097 92.8841 15.2228 66.7842 14.6976 48.4553C14.6712 47.604 14.988 46.7782 15.5746 46.1636C17.9622 43.2892 20.5395 40.5796 23.2889 38.053C23.8143 37.5249 24.344 37.8741 24.344 38.7556C24.344 61.3237 28.1989 82.3027 34.3375 96.0576C34.8629 97.1139 35.388 97.1139 36.0914 96.5858L38.0189 95.3503C34.3375 78.9547 32.2319 57.094 32.7571 31.8805C32.7571 30.9987 32.9351 30.6451 33.4606 30.2961C36.148 28.6111 38.9607 27.137 41.8736 25.8872C42.7506 25.5335 42.9288 25.7125 42.9288 26.4153C42.4319 63.0826 45.4236 88.4611 51.8999 108.737C52.0737 109.266 52.5987 109.086 52.5987 108.558C52.2471 101.155 52.2471 94.6338 52.2471 86.6977L51.9002 23.4023C51.9002 22.6998 52.0739 22.3461 52.7771 22.1717C55.6622 21.4555 58.5897 20.9248 61.5419 20.5826C61.6861 20.5614 61.8307 20.6143 61.9337 20.7167C62.0367 20.8202 62.0858 20.9654 62.0673 21.1106L62.0529 145.056ZM72.5763 145.23C72.2246 145.584 71.8728 145.409 71.8728 145.056V21.1154C71.8517 20.9702 71.9045 20.825 72.0064 20.7215C72.1094 20.618 72.254 20.5684 72.3982 20.5874C95.8929 22.1765 110.975 32.0506 110.975 46.3289C110.971 52.2527 108.784 57.965 104.836 62.3614C112.55 64.4787 115.533 70.2975 115.533 78.0544C115.549 91.8093 105.553 114.557 72.5905 145.23L72.5763 145.23Z" fill="#024EB4"/>
</svg>
